<?xml version="1.0" encoding="UTF-8"?>
<svg xmlns="http://www.w3.org/2000/svg" xmlns:xlink="http://www.w3.org/1999/xlink" width="296.6pt" height="365.1pt" viewBox="0 0 296.6 365.1" version="1.1">
<defs>
<clipPath id="clip1">
  <path d="M 0 0 L 296.601563 0 L 296.601563 365 L 0 365 Z M 0 0 "/>
</clipPath>
</defs>
<g id="surface1">
<g clip-path="url(#clip1)" clip-rule="nonzero">
<path style=" stroke:none;fill-rule:evenodd;fill:rgb(0%,49.021912%,18.431091%);fill-opacity:1;" d="M 149.21875 0.65625 C 148.476563 1.152344 149.546875 1.316406 149.546875 1.726563 C 149.382813 2.964844 150.453125 3.957031 150.039063 5.191406 C 151.855469 8.988281 152.683594 13.277344 153.996094 17.398438 C 154.578125 18.226563 154.496094 19.214844 155.15625 20.121094 C 155.402344 23.007813 156.890625 25.8125 157.546875 28.535156 L 158.371094 28.949219 C 164.230469 28.617188 170.085938 28.949219 175.859375 28.699219 L 176.191406 28.949219 C 180.398438 28.039063 185.429688 29.03125 189.386719 28.535156 C 189.800781 28.699219 189.554688 29.195313 189.636719 29.527344 C 181.058594 35.710938 173.054688 41.570313 164.890625 47.753906 C 163.324219 48.746094 164.3125 50.3125 164.558594 51.632813 C 165.21875 53.035156 165.632813 54.519531 165.960938 56.085938 C 167.53125 60.292969 168.4375 64.746094 170.246094 68.789063 C 170.003906 70.273438 171.242188 71.261719 171.078125 72.582031 C 171.984375 73.078125 171.160156 73.820313 171.820313 74.398438 C 171.902344 75.550781 173.386719 77.035156 172.148438 77.945313 C 164.148438 73.078125 156.476563 66.726563 148.640625 61.613281 L 147.566406 61.363281 C 138.824219 67.386719 130.742188 73.984375 122.246094 80.089844 C 121.914063 80.171875 121.664063 80.007813 121.421875 79.757813 C 122.246094 76.378906 123.484375 72.914063 124.636719 69.53125 C 123.730469 68.789063 125.296875 69.117188 125.132813 68.375 C 127.195313 62.4375 129.089844 56.25 130.824219 50.066406 C 130.742188 49.15625 129.914063 48.414063 129.171875 48.003906 C 126.285156 45.609375 122.742188 43.628906 119.851563 40.992188 L 118.945313 40.828125 L 105.746094 31.503906 C 105.746094 31.339844 105.914063 31.257813 105.828125 31.011719 L 105.664063 30.84375 C 112.675781 29.609375 119.769531 30.101563 127.441406 30.101563 C 128.515625 29.691406 129.503906 30.433594 130.578125 29.855469 C 132.96875 29.855469 134.949219 29.9375 137.09375 29.359375 C 138.496094 27.382813 138.414063 24.660156 139.730469 22.597656 C 142.039063 16.328125 143.609375 10.222656 146.164063 3.871094 C 145.753906 2.882813 146.742188 1.976563 147.074219 0.984375 C 146.992188 0.574219 147.238281 0.242188 147.566406 -0.0859375 C 148.226563 -0.0859375 148.640625 0.40625 149.21875 0.65625 Z M 148.144531 14.265625 C 147.652344 14.761719 148.476563 16.246094 148.886719 17.152344 L 148.96875 17.152344 C 149.710938 19.050781 149.878906 21.855469 150.785156 23.421875 C 150.203125 24.164063 151.28125 24.246094 151.199219 24.90625 C 152.765625 28.125 152.683594 31.339844 154.578125 34.476563 L 155.074219 34.144531 C 162.085938 33.980469 169.179688 34.0625 175.695313 33.898438 L 176.023438 34.144531 C 170.414063 38.847656 164.3125 43.136719 158.203125 47.589844 C 159.777344 52.539063 161.261719 57.570313 163.324219 62.601563 C 163.15625 64.25 164.066406 65.652344 164.394531 67.140625 L 163.984375 67.140625 C 158.785156 63.179688 153.011719 59.46875 147.816406 55.261719 C 145.996094 56.992188 143.855469 57.902344 142.121094 59.632813 C 140.226563 60.703125 138.414063 62.4375 136.84375 63.589844 C 134.203125 65.078125 132.226563 67.222656 129.503906 68.542969 C 130.578125 64.335938 131.894531 60.128906 133.546875 56.085938 C 134.039063 53.28125 135.277344 50.394531 136.183594 47.589844 C 130.492188 43.21875 124.636719 39.09375 118.945313 34.886719 L 118.945313 34.476563 C 121.339844 34.640625 123.484375 34.226563 125.460938 34.390625 L 140.308594 34.226563 C 140.558594 33.734375 141.300781 32.988281 140.558594 32.496094 C 141.464844 32.164063 141.628906 30.929688 141.960938 30.101563 C 142.371094 27.382813 143.9375 24.328125 144.351563 21.523438 L 144.105469 21.523438 C 143.9375 20.78125 145.507813 20.699219 144.929688 19.628906 C 146.164063 17.894531 146.246094 15.585938 147.320313 13.6875 Z M 141.960938 36.785156 C 141.628906 38.1875 140.144531 39.175781 139.816406 40.660156 C 140.472656 41.816406 142.121094 41.074219 142.535156 42.476563 C 142.289063 43.714844 141.628906 44.539063 140.558594 45.199219 C 138.988281 45.117188 136.761719 45.03125 136.019531 43.382813 C 136.597656 40.25 139.566406 37.9375 141.464844 35.546875 C 142.121094 35.546875 142.203125 36.371094 141.960938 36.785156 Z M 157.878906 37.195313 C 157.546875 38.269531 157.054688 39.507813 157.382813 40.578125 C 157.960938 41.484375 156.804688 42.640625 157.546875 43.628906 C 157.382813 44.289063 156.722656 44.539063 156.0625 44.621094 C 154.910156 43.054688 155.238281 40.414063 152.765625 39.589844 C 152.1875 38.765625 151.199219 37.691406 151.855469 36.867188 C 153.175781 35.628906 155.15625 38.1875 156.3125 36.289063 C 157.136719 35.875 157.878906 36.371094 157.878906 37.195313 Z M 151.03125 40.828125 C 151.113281 41.816406 151.363281 43.136719 150.785156 43.960938 C 150.289063 44.457031 149.546875 44.621094 148.96875 44.371094 C 147.734375 43.546875 148.394531 41.570313 146.824219 41.238281 C 146.164063 41.980469 146.246094 43.300781 145.09375 43.628906 C 143.113281 42.96875 145.175781 41.484375 144.929688 40.332031 C 146.246094 39.175781 146.414063 36.371094 148.394531 36.867188 C 149.464844 38.1875 150.039063 39.421875 151.03125 40.828125 Z M 83.972656 62.023438 C 85.703125 67.46875 87.269531 72.996094 88.667969 78.523438 C 90.324219 78.523438 92.054688 77.78125 93.789063 77.367188 C 95.191406 77.203125 96.421875 76.378906 97.746094 76.292969 C 98.160156 80.417969 97.496094 84.296875 97.914063 88.335938 C 102.367188 87.675781 108.140625 86.273438 112.511719 88.171875 L 112.757813 88.667969 C 110.78125 92.957031 107.726563 96.832031 104.675781 100.628906 C 101.453125 104.421875 97.582031 108.792969 92.546875 109.207031 C 89.246094 109.617188 85.457031 111.019531 82.074219 109.289063 C 80.261719 108.957031 78.609375 107.144531 76.878906 107.390625 L 77.457031 112.753906 C 77.039063 113.164063 77.621094 113.660156 77.621094 114.15625 C 80.09375 114.402344 82.324219 113.246094 84.714844 113 C 87.355469 112.753906 90.242188 111.679688 92.714844 112.421875 C 93.289063 112.917969 93.128906 114.074219 92.792969 114.648438 C 92.46875 115.640625 91.066406 116.382813 91.148438 117.371094 C 87.683594 122.734375 85.210938 128.753906 80.421875 133.292969 C 76.542969 137.003906 71.351563 138.488281 66.15625 138.40625 C 65.824219 138.160156 65.332031 138.324219 64.914063 138.324219 C 64.339844 139.230469 64.914063 140.550781 64.914063 141.621094 L 65.246094 141.953125 C 69.039063 140.878906 72.011719 138.902344 75.972656 138.160156 C 77.039063 138.570313 76.382813 140.136719 76.054688 140.878906 C 73.742188 148.058594 71.847656 155.398438 68.046875 161.914063 C 65.90625 165.132813 62.773438 167.851563 59.144531 168.347656 C 57.082031 169.421875 59.554688 170.988281 59.640625 172.308594 C 59.804688 172.554688 60.214844 172.554688 60.382813 172.390625 L 69.039063 164.222656 C 69.371094 164.140625 69.621094 164.058594 70.03125 164.058594 L 70.363281 164.882813 C 72.011719 176.761719 72.996094 190.535156 63.597656 199.199219 C 63.019531 199.773438 63.515625 200.597656 63.929688 201.011719 C 64.339844 201.339844 64.835938 201.671875 65.332031 201.339844 C 68.21875 197.960938 69.621094 194 71.765625 190.289063 C 72.011719 189.957031 72.667969 190.042969 72.996094 190.207031 C 76.792969 198.621094 79.519531 207.527344 80.667969 217.015625 C 80.261719 221.222656 79.269531 225.097656 77.703125 228.808594 C 78.28125 229.800781 79.683594 229.632813 80.667969 229.964844 C 81.664063 227.078125 82.324219 223.859375 82.734375 220.808594 C 83.148438 219.160156 82.324219 217.507813 82.570313 215.859375 L 82.816406 215.613281 C 90.570313 222.539063 98.242188 230.292969 99.890625 240.441406 L 99.5625 250.339844 C 100.964844 250.503906 102.449219 250.914063 103.933594 250.421875 C 102.777344 246.460938 101.871094 242.171875 101.621094 238.210938 C 102.859375 237.140625 104.347656 238.460938 105.664063 238.871094 C 113.007813 242.089844 120.511719 245.058594 126.78125 250.996094 C 131.402344 255.945313 133.214844 263.039063 132.144531 269.640625 C 133.710938 271.042969 135.855469 271.785156 136.84375 273.847656 C 136.679688 275.578125 136.761719 277.226563 135.195313 278.136719 C 132.722656 277.722656 131.234375 273.1875 128.183594 274.917969 C 122.65625 282.261719 113.746094 283.578125 105.414063 282.011719 C 97.164063 279.949219 89.828125 276.652344 82.816406 271.535156 L 82.816406 270.382813 C 87.683594 269.226563 92.136719 266.753906 96.59375 264.523438 L 92.714844 258.585938 C 86.777344 261.308594 78.777344 261.804688 72.996094 258.585938 C 65.164063 254.132813 59.554688 245.472656 53.453125 239.53125 C 53.617188 239.039063 53.535156 238.378906 54.195313 238.210938 C 59.722656 239.699219 65.246094 238.957031 70.609375 238.542969 C 70.609375 237.304688 70.609375 235.738281 70.113281 234.5 C 64.417969 236.726563 56.257813 237.800781 51.472656 233.097656 C 42.234375 225.921875 40.832031 214.292969 37.121094 204.230469 C 37.367188 203.734375 36.707031 202.992188 37.53125 202.660156 C 41.410156 203.816406 44.871094 206.042969 48.996094 206.703125 C 49.574219 207.199219 50.316406 207.445313 51.144531 207.199219 C 51.636719 206.703125 51.636719 205.960938 51.554688 205.300781 C 43.96875 203.652344 35.71875 198.207031 33.078125 190.289063 C 30.109375 180.804688 33.65625 171.398438 32.335938 161.5 C 32.914063 161.007813 33.574219 161.75 34.152344 162.160156 C 37.617188 165.789063 40.503906 168.59375 44.460938 171.234375 C 45.039063 170.492188 45.371094 169.585938 44.789063 168.679688 C 39.761719 165.460938 35.882813 160.757813 33.902344 155.398438 C 32.089844 145.003906 34.644531 134.199219 40.914063 126.03125 C 41.246094 125.539063 41.820313 125.949219 41.820313 126.445313 C 43.472656 130.320313 45.945313 134.035156 48.339844 137.746094 L 48.746094 137.746094 L 51.96875 132.960938 C 49.660156 129.664063 47.183594 126.527344 45.863281 122.898438 L 45.371094 122.488281 C 45.535156 122.570313 45.535156 122.402344 45.617188 122.402344 C 45.78125 122.074219 45.453125 121.910156 45.285156 121.660156 L 45.203125 121.828125 C 44.046875 113.332031 48.007813 104.917969 53.371094 98.152344 C 55.515625 95.597656 57.496094 93.121094 59.144531 90.398438 C 59.804688 90.566406 60.296875 91.554688 60.710938 91.96875 C 62.445313 97 65.742188 101.289063 67.226563 106.320313 C 69.207031 105.742188 71.023438 104.753906 72.996094 104.007813 C 71.023438 101.371094 68.21875 99.71875 66.648438 96.75 C 64.09375 93.039063 64.011719 87.675781 65.824219 83.554688 C 68.792969 77.863281 72.914063 72.335938 78.03125 67.964844 C 80.261719 66.5625 82.238281 64.085938 83.3125 61.777344 Z M 233.683594 84.460938 C 236.652344 92.460938 231.039063 99.390625 226.175781 105.082031 C 227.660156 105.824219 229.3125 106.238281 230.714844 107.390625 C 232.113281 106.980469 231.371094 105.246094 232.03125 104.339844 C 234.09375 99.886719 235.746094 95.101563 239.039063 91.308594 C 240.117188 91.140625 239.703125 92.460938 240.445313 92.957031 L 247.539063 102.195313 C 250.507813 107.722656 252.984375 113.660156 253.230469 120.09375 C 252.242188 123.722656 251.246094 126.363281 249.023438 129.414063 C 247.703125 131.148438 243.992188 132.960938 246.386719 135.4375 L 248.53125 138.902344 C 250.675781 136.839844 251.828125 133.539063 253.972656 131.558594 C 255.371094 130.320313 254.964844 127.683594 257.027344 127.351563 C 258.675781 129.332031 259.664063 132.054688 260.40625 134.613281 C 263.953125 144.921875 267.171875 157.625 257.4375 165.957031 C 255.703125 168.679688 252.160156 168.101563 250.425781 170.574219 C 250.507813 171.316406 251.003906 172.058594 251.578125 172.472656 C 254.796875 171.484375 257.273438 168.59375 259.996094 166.699219 L 263.210938 163.398438 C 263.378906 163.976563 263.871094 163.5625 264.203125 163.730469 C 264.695313 168.429688 264.613281 172.882813 265.109375 177.585938 C 265.4375 181.214844 264.695313 184.515625 264.449219 188.144531 C 263.378906 194.992188 258.015625 202.332031 250.921875 204.230469 C 248.777344 204.804688 246.304688 205.054688 244.734375 206.375 C 244.984375 207.035156 245.066406 207.777344 245.644531 208.269531 C 250.507813 207.527344 254.882813 205.714844 259.171875 203.652344 C 258.675781 208.351563 257.191406 212.972656 255.371094 217.261719 C 255.289063 218.910156 254.714844 220.5625 254.054688 222.046875 C 252.324219 226.5 249.4375 230.789063 245.558594 233.921875 C 245.230469 233.59375 244.15625 234.007813 244.570313 234.5 C 239.289063 238.296875 231.703125 237.386719 226.09375 234.996094 C 225.597656 236.398438 225.515625 237.636719 225.269531 239.121094 C 230.21875 240.191406 236.15625 240.6875 241.105469 239.121094 C 241.4375 239.285156 242.011719 239.203125 242.097656 239.699219 L 241.269531 241.265625 C 234.09375 250.667969 225.679688 261.226563 213.554688 261.554688 C 210.339844 261.144531 206.953125 260.152344 203.742188 259.246094 C 202.421875 260.980469 200.769531 263.207031 199.203125 265.019531 C 199.121094 266.585938 201.265625 265.925781 202.089844 266.917969 C 205.308594 269.0625 208.605469 270.878906 212.730469 270.628906 C 212.320313 272.855469 209.761719 273.433594 208.113281 274.507813 L 199.535156 279.042969 C 198.703125 278.546875 198.953125 280.03125 198.050781 279.539063 C 190.378906 283.578125 180.066406 284.074219 172.644531 278.546875 L 167.941406 274.257813 C 166.210938 274.507813 164.726563 276.652344 162.746094 277.0625 C 162.496094 277.558594 162.164063 277.226563 161.835938 277.144531 C 160.765625 275.742188 161.425781 273.679688 160.765625 272.195313 C 162.328125 271.125 164.066406 269.96875 164.808594 268.15625 C 165.382813 264.03125 162.910156 260.070313 165.46875 256.359375 C 171.984375 245.140625 184.273438 242.335938 194.585938 237.222656 L 195.328125 237.71875 C 194.414063 241.925781 193.265625 246.296875 192.605469 250.421875 C 194.171875 250.503906 195.90625 251.410156 197.058594 250.089844 C 192.769531 235.984375 204.152344 225.757813 212.402344 215.859375 C 213.308594 215.445313 213.308594 216.519531 213.554688 217.015625 C 213.390625 221.632813 214.214844 226.335938 216.113281 230.375 C 216.609375 230.871094 217.351563 230.460938 217.84375 230.210938 L 218.09375 229.964844 C 212.8125 218.332031 218.257813 205.21875 223.535156 194.992188 C 224.113281 194.082031 223.371094 192.105469 225.019531 192.351563 C 227.578125 195.652344 228.816406 199.691406 232.113281 202.414063 C 232.773438 202.414063 233.105469 201.671875 233.683594 201.257813 C 224.527344 192.269531 224.773438 177.917969 226.996094 166.121094 C 227.742188 165.214844 228.570313 166.285156 229.226563 166.449219 C 231.621094 168.429688 233.601563 171.316406 236.652344 172.140625 C 237.476563 172.058594 238.632813 171.976563 238.878906 170.988281 C 238.960938 170.410156 238.714844 169.914063 238.382813 169.503906 C 237.3125 169.832031 237.558594 168.265625 236.40625 168.679688 C 227.496094 163.480469 225.597656 153.335938 222.382813 144.675781 L 221.0625 139.230469 C 222.710938 138.734375 224.277344 139.890625 225.679688 140.714844 L 231.867188 142.777344 C 232.859375 142.035156 232.527344 140.46875 232.609375 139.394531 L 232.113281 138.902344 C 227.742188 139.148438 224.03125 137.746094 220.484375 136.015625 C 217.019531 133.539063 213.390625 130.320313 211.90625 126.28125 C 209.101563 122.320313 207.453125 117.867188 205.140625 113.578125 C 205.308594 112.917969 205.800781 112.421875 206.460938 112.257813 C 210.746094 113.082031 215.121094 113.414063 219.414063 114.816406 C 220.074219 113.414063 220.074219 112.175781 220.320313 110.609375 C 220.730469 110.03125 221.0625 109.207031 220.730469 108.464844 C 219.578125 107.554688 218.671875 109.207031 217.515625 109.289063 C 213.144531 110.527344 208.773438 109.207031 204.484375 108.382813 C 196.648438 104.257813 190.789063 96.257813 186.496094 88.667969 C 186.664063 86.191406 189.882813 87.511719 191.613281 86.851563 C 192.191406 87.265625 193.015625 86.769531 193.757813 86.769531 C 194.253906 87.675781 194.828125 86.441406 195.574219 86.851563 C 197.222656 86.851563 198.871094 86.851563 200.277344 87.347656 L 200.523438 87.101563 C 200.195313 83.386719 199.863281 78.851563 201.679688 75.550781 L 202.171875 75.550781 C 202.664063 75.636719 203.574219 75.964844 204.234375 76.210938 L 203.742188 76.542969 C 206.214844 76.460938 208.441406 78.523438 210.828125 78.933594 C 211.078125 76.128906 212.070313 73.324219 213.390625 70.851563 C 213.554688 67.964844 216.195313 65.40625 215.371094 62.273438 L 215.617188 62.023438 C 223.621094 67.632813 228.898438 76.292969 233.683594 84.460938 Z M 149.136719 70.601563 C 151.527344 78.523438 157.054688 84.957031 161.835938 91.636719 C 170.910156 100.546875 182.128906 105.578125 192.109375 113.496094 C 196.648438 116.878906 200.769531 120.671875 205.140625 124.546875 C 205.058594 125.785156 206.214844 124.796875 206.460938 125.949219 C 206.132813 126.609375 206.953125 126.03125 207.039063 126.527344 C 207.453125 127.351563 209.101563 127.683594 208.605469 128.835938 C 211.328125 132.632813 213.0625 137.085938 215.453125 141.128906 C 217.597656 146.570313 219.742188 151.933594 220.730469 157.789063 C 223.535156 175.113281 221.226563 193.175781 212.152344 208.351563 C 204.070313 219.652344 192.851563 230.046875 180.480469 235.324219 C 171.820313 239.863281 163.15625 245.964844 157.878906 254.542969 C 156.804688 256.6875 155.402344 258.667969 154.828125 260.980469 C 154.085938 262.214844 153.753906 263.867188 153.011719 265.269531 C 151.445313 267.742188 150.703125 270.792969 149.710938 273.597656 C 148.558594 273.597656 148.476563 272.277344 148.0625 271.535156 C 145.257813 263.699219 140.308594 256.277344 134.617188 250.421875 C 134.371094 250.089844 134.453125 249.347656 133.871094 249.511719 C 132.0625 247.367188 130.164063 245.964844 128.347656 244.152344 C 128.347656 243.078125 127.441406 243.328125 126.863281 242.832031 C 123.070313 239.203125 118.863281 235.902344 114.160156 233.921875 C 107.234375 229.140625 98.984375 226.167969 93.042969 219.074219 C 88.757813 213.632813 84.714844 207.941406 81.664063 202 L 80.917969 201.257813 C 79.269531 196.0625 77.539063 190.535156 76.382813 185.585938 C 76.632813 184.515625 75.972656 183.691406 76.296875 182.949219 C 75.558594 182.207031 76.136719 181.050781 75.972656 180.144531 C 76.054688 179.234375 75.144531 178.492188 75.804688 177.75 C 75.0625 172.140625 75.804688 168.59375 75.972656 162.902344 L 75.722656 162.492188 C 76.382813 157.460938 77.371094 152.179688 79.519531 147.5625 C 79.519531 145.003906 81.664063 143.273438 81.910156 140.796875 C 84.46875 134.035156 89.910156 128.09375 94.941406 122.652344 C 98.488281 119.683594 101.289063 116.382813 105.007813 113.992188 L 105.171875 114.074219 C 112.183594 106.730469 122.410156 104.503906 130.078125 97.410156 L 134.699219 93.617188 C 140.226563 87.84375 144.761719 82.152344 146.824219 74.644531 C 147.566406 73.324219 147.320313 71.839844 147.816406 70.519531 C 147.980469 70.519531 148.0625 70.355469 148.144531 70.273438 L 147.816406 69.777344 Z M 82.238281 71.921875 C 82.816406 75.386719 85.210938 79.839844 82.488281 82.976563 C 77.457031 87.429688 76.054688 93.699219 74.488281 99.71875 C 70.363281 96.089844 69.539063 89.738281 71.023438 84.625 C 73.992188 80.089844 76.792969 75.222656 80.917969 71.429688 C 81.496094 71.261719 82.074219 71.097656 82.238281 71.921875 Z M 221.0625 75.222656 C 225.269531 80.667969 231.371094 87.347656 227.742188 94.359375 C 226.914063 96.089844 226.011719 97.90625 224.855469 99.308594 C 223.621094 99.390625 223.703125 98.234375 223.203125 97.410156 C 223.785156 90.566406 220.15625 85.039063 215.617188 80.253906 C 215.121094 77.203125 216.773438 74.644531 217.351563 72.171875 C 218.914063 72.582031 219.90625 74.316406 221.0625 75.222656 Z M 92.878906 83.636719 C 92.386719 90.976563 87.1875 97.742188 80.09375 99.96875 C 80.34375 93.945313 82.898438 87.925781 88.667969 84.625 C 89.992188 84.128906 91.066406 83.140625 92.714844 83.222656 Z M 214.789063 88.667969 C 217.597656 91.882813 218.671875 95.84375 219.078125 100.050781 C 217.925781 100.460938 216.855469 99.226563 215.699219 98.976563 C 209.925781 95.84375 206.214844 89.492188 206.953125 83.304688 C 209.679688 84.542969 212.152344 86.6875 214.789063 88.667969 Z M 160.351563 101.121094 C 163.40625 104.917969 168.023438 107.472656 171.652344 110.359375 C 169.015625 110.9375 165.714844 110.773438 163.816406 108.214844 C 160.269531 109.207031 156.640625 111.515625 152.929688 109.453125 C 151.941406 108.546875 150.785156 107.390625 149.21875 108.050781 C 148.144531 108.628906 146.910156 109.535156 145.507813 108.875 C 144.515625 110.359375 142.453125 109.949219 141.050781 109.699219 C 139.320313 108.792969 137.914063 106.898438 135.523438 107.640625 C 133.628906 108.382813 131.566406 110.03125 129.339844 109.042969 C 132.472656 105.90625 136.597656 102.605469 139.566406 99.144531 C 143.277344 95.183594 146.164063 89.65625 148.640625 84.707031 C 151.609375 90.480469 155.074219 96.667969 160.351563 101.121094 Z M 212.402344 100.792969 C 214.214844 101.535156 215.785156 102.605469 217.761719 103.019531 C 217.101563 105 215.289063 104.835938 213.390625 105.246094 C 210.585938 105.164063 207.699219 104.835938 205.390625 103.265625 L 205.308594 103.597656 C 204.484375 103.265625 203.90625 102.03125 203.164063 102.277344 C 203.164063 101.617188 201.84375 101.949219 201.84375 101.039063 L 200.769531 100.546875 C 198.703125 98.152344 196.5625 95.84375 195.410156 93.039063 C 201.347656 90.648438 205.96875 95.84375 210.007813 99.308594 C 210.664063 99.804688 211.578125 100.296875 212.402344 100.792969 Z M 103.273438 93.371094 C 99.726563 99.71875 93.371094 105.164063 85.785156 104.667969 C 84.21875 104.257813 82.40625 104.257813 80.917969 103.597656 C 86.117188 101.289063 91.230469 98.152344 95.273438 93.863281 C 97.828125 93.371094 100.714844 92.875 103.273438 93.371094 Z M 58.8125 100.628906 C 60.214844 103.925781 63.597656 107.390625 61.453125 111.101563 C 58.8125 114.484375 58.320313 118.691406 56.835938 122.488281 C 56.664063 124.382813 56.664063 126.859375 56.339844 128.921875 C 52.378906 126.28125 50.484375 121.496094 50.894531 116.710938 C 51.554688 113.082031 52.628906 109.617188 54.691406 106.566406 C 55.433594 104.421875 57.082031 102.605469 58.320313 100.628906 Z M 239.703125 102.113281 C 241.601563 106.238281 244.652344 109.949219 246.386719 114.15625 C 246.960938 118.445313 247.621094 123.890625 244.488281 127.601563 C 243.414063 128.507813 242.671875 129.992188 241.269531 129.25 C 240.941406 125.539063 241.023438 121.414063 239.867188 117.867188 C 239.121094 114.238281 234.507813 112.175781 235.578125 108.132813 C 236.40625 105.660156 237.148438 103.265625 238.796875 101.121094 Z M 143.527344 112.917969 C 143.691406 114.734375 143.445313 116.628906 143.03125 118.363281 C 140.390625 119.023438 137.753906 116.546875 135.195313 118.113281 C 132.96875 118.855469 130.492188 120.753906 128.101563 119.1875 C 126.285156 118.773438 125.539063 116.546875 123.316406 117.042969 C 121.007813 117.785156 119.191406 119.515625 116.472656 119.1875 C 116.058594 118.855469 115.234375 118.363281 115.5625 117.785156 C 119.359375 115.804688 122.492188 112.917969 126.371094 111.351563 C 129.914063 112.753906 133.546875 112.421875 136.597656 110.359375 C 138.988281 111.101563 140.96875 112.917969 143.527344 112.917969 Z M 72.507813 111.929688 C 72.667969 119.023438 68.046875 125.042969 61.949219 128.425781 C 62.03125 122.570313 62.773438 115.96875 68.542969 112.503906 C 69.785156 112.011719 72.421875 108.875 72.507813 111.929688 Z M 230.300781 113.578125 C 234.753906 117.785156 235.828125 123.804688 236.074219 129.25 C 233.515625 128.589844 231.371094 126.03125 229.144531 124.054688 C 226.421875 121.167969 225.269531 117.453125 225.679688 113.578125 L 225.433594 113.332031 C 226.175781 112.753906 224.9375 111.351563 226.09375 110.855469 C 228.15625 110.691406 228.484375 113.332031 230.300781 113.578125 Z M 151.445313 111.84375 L 149.464844 111.84375 C 149.796875 111.269531 151.113281 110.691406 151.445313 111.84375 Z M 170.246094 113.578125 C 171.984375 113.824219 173.054688 112.339844 174.539063 111.929688 C 178.003906 114.816406 181.882813 116.628906 185.179688 119.765625 C 184.769531 120.917969 183.449219 120.917969 182.460938 121.332031 C 179.160156 121.992188 177.179688 118.195313 174.128906 119.515625 C 171.40625 120.425781 167.859375 121.910156 165.136719 120.011719 C 162.496094 117.371094 158.289063 118.609375 155.15625 119.269531 C 152.023438 118.691406 154.246094 114.816406 152.765625 112.753906 L 153.011719 112.503906 C 155.816406 113.332031 159.363281 113.660156 161.835938 111.84375 C 164.808594 111.515625 167.117188 114.816406 170.246094 113.578125 Z M 149.710938 114.15625 C 150.621094 117.535156 150.867188 121.167969 151.113281 124.796875 C 152.351563 126.527344 154.578125 127.929688 154.164063 130.320313 C 152.683594 130.816406 152.515625 132.054688 152.683594 133.457031 C 149.878906 136.261719 150.121094 140.550781 148.476563 144.015625 C 146.742188 150.945313 145.835938 158.203125 144.1875 165.132813 C 142.949219 165.132813 142.703125 163.976563 142.703125 162.902344 C 142.617188 159.769531 142.371094 156.882813 141.871094 153.746094 C 142.453125 153.746094 142.785156 154.902344 143.527344 154.324219 C 144.019531 153.089844 143.855469 151.4375 145.175781 150.613281 C 146.824219 144.921875 147.566406 138.488281 149.546875 132.714844 C 149.878906 131.066406 149.878906 128.921875 151.113281 127.519531 C 150.621094 125.375 151.527344 122.320313 149.546875 120.753906 C 148.476563 121.828125 148.226563 123.394531 148.0625 124.960938 C 146.660156 130.734375 146.910156 137.332031 145.175781 142.777344 C 144.269531 143.355469 143.691406 144.261719 143.773438 145.335938 L 143.855469 146.160156 C 143.609375 146.160156 143.03125 146.242188 142.785156 145.746094 C 142.617188 143.4375 142.203125 140.878906 142.703125 138.570313 C 144.1875 136.097656 141.960938 134.035156 141.871094 131.640625 L 141.382813 125.867188 C 140.722656 125.703125 139.730469 125.949219 139.566406 126.777344 C 139.484375 127.105469 139.816406 127.601563 139.320313 127.765625 C 138.078125 127.1875 138.246094 125.703125 138.246094 124.382813 C 138.496094 123.394531 139.320313 123.0625 139.730469 122.15625 C 143.277344 122.570313 142.617188 127.023438 143.527344 129.664063 C 143.773438 131.394531 143.363281 133.457031 144.351563 134.941406 C 145.09375 135.355469 145.421875 134.363281 145.507813 133.785156 C 145.914063 127.105469 146.496094 120.917969 148.226563 114.816406 C 148.640625 114.320313 149.136719 114.074219 149.710938 114.15625 Z M 83.890625 119.269531 C 81.332031 126.691406 73.992188 132.550781 66.074219 132.796875 C 65.332031 132.960938 64.257813 133.125 63.597656 132.714844 L 63.847656 131.972656 C 68.21875 129.085938 72.753906 125.703125 75.972656 121.167969 C 77.867188 119.597656 80.421875 119.023438 82.734375 118.691406 C 83.230469 118.527344 83.808594 118.9375 83.890625 119.269531 Z M 223.121094 122.652344 C 225.105469 127.1875 230.21875 129.496094 233.765625 132.46875 C 234.257813 132.632813 234.257813 133.539063 234.011719 133.785156 C 229.640625 134.695313 225.597656 132.136719 222.050781 130.238281 C 217.597656 128.261719 215.617188 123.558594 213.722656 119.433594 L 216.773438 119.269531 L 216.773438 119.1875 C 218.996094 120.09375 221.226563 121.085938 223.121094 122.652344 Z M 137.585938 120.753906 C 137.503906 121.578125 136.925781 121.992188 136.351563 122.488281 C 132.0625 123.144531 133.546875 128.425781 131.484375 131.148438 C 129.171875 131.808594 127.855469 128.011719 125.710938 129.828125 C 123.566406 131.808594 124.554688 134.941406 122.574219 136.839844 C 122.824219 138.074219 122.246094 138.902344 121.746094 139.808594 C 120.925781 138.902344 121.746094 137.085938 121.996094 135.765625 L 122.742188 135.105469 C 122.328125 132.21875 123.484375 129.167969 122.742188 126.445313 C 122.246094 125.949219 121.746094 125.375 120.925781 125.621094 C 119.9375 126.859375 119.523438 128.671875 119.441406 129.992188 L 119.191406 130.238281 C 117.789063 128.835938 118.121094 124.878906 115.152344 126.199219 C 113.496094 127.1875 114.574219 128.835938 114.65625 130.238281 C 113.171875 129.664063 111.769531 127.765625 109.871094 127.765625 C 107.726563 129.167969 104.511719 130.074219 102.035156 128.835938 C 103.273438 128.261719 104.015625 126.691406 104.921875 126.199219 C 107.316406 123.972656 109.539063 121.992188 112.265625 120.507813 C 114.820313 121 117.621094 121.910156 120.101563 121.578125 C 121.339844 120.835938 122.65625 119.515625 124.308594 120.339844 C 127.9375 122.734375 133.050781 122.652344 136.515625 120.011719 C 136.925781 120.175781 137.585938 120.09375 137.585938 120.753906 Z M 160.351563 121.414063 C 160.683594 122.238281 160.351563 123.394531 160.519531 124.382813 C 159.941406 124.796875 158.785156 124.054688 158.703125 124.960938 C 158.453125 124.714844 158.203125 124.464844 157.796875 124.546875 C 156.804688 126.445313 158.539063 128.09375 158.121094 130.238281 C 158.453125 134.777344 156.804688 139.3125 155.898438 143.4375 C 154.578125 138.160156 156.148438 133.210938 156.3125 127.765625 C 156.0625 125.539063 153.011719 124.878906 153.507813 122.402344 C 155.816406 122.898438 157.960938 121.414063 160.351563 121.414063 Z M 166.039063 123.476563 C 167.859375 124.21875 170.085938 125.042969 171.902344 123.722656 L 172.726563 123.722656 C 172.230469 127.351563 167.695313 128.09375 166.039063 131.3125 C 164.558594 131.890625 163.984375 130.074219 162.992188 129.25 C 161.835938 127.105469 162.246094 123.722656 162.164063 121.578125 C 163.652344 121.828125 164.640625 123.0625 166.039063 123.476563 Z M 198.378906 132.21875 C 196.316406 133.871094 193.59375 133.785156 191.367188 132.714844 C 189.636719 131.972656 188.398438 129.496094 186.253906 130.488281 C 184.605469 131.808594 182.789063 132.878906 180.890625 133.703125 C 179.160156 132.382813 177.261719 130.898438 175.117188 130.238281 C 173.550781 128.261719 173.550781 125.621094 174.621094 123.476563 C 177.675781 122.402344 179.65625 125.621094 182.789063 124.632813 C 185.097656 124.464844 186.828125 121.578125 189.140625 122.980469 C 192.851563 125.125 195.988281 128.753906 198.378906 132.21875 Z M 160.519531 129.992188 C 160.1875 130.40625 160.765625 131.558594 159.941406 131.394531 C 159.28125 129.578125 159.199219 127.351563 159.035156 125.457031 C 161.507813 125.539063 160.351563 128.507813 160.519531 129.992188 Z M 136.515625 128.589844 C 138.414063 132.714844 139.402344 137.25 140.640625 141.621094 C 140.640625 145.417969 142.039063 148.632813 142.203125 152.347656 L 141.871094 153.253906 C 140.886719 149.625 140.308594 145.582031 140.0625 141.953125 C 139.648438 140.960938 138.988281 140.136719 138.078125 139.644531 C 136.515625 140.222656 137.257813 142.28125 137.257813 143.683594 C 136.925781 145.003906 137.011719 146.652344 136.515625 148.140625 C 135.359375 144.425781 136.597656 139.808594 136.351563 136.179688 C 136.515625 135.601563 136.925781 134.695313 136.269531 134.28125 C 135.359375 134.199219 134.867188 134.941406 134.617188 135.683594 C 133.789063 137.746094 133.378906 139.890625 132.226563 141.707031 C 132.0625 141.953125 131.648438 141.375 131.730469 141.046875 C 132.96875 136.671875 134.121094 132.382813 136.183594 128.425781 Z M 171.570313 137.25 C 171.078125 139.394531 170.164063 141.707031 168.1875 143.023438 C 167.445313 143.273438 166.953125 142.695313 166.703125 142.199219 C 166.703125 138.160156 168.105469 134.035156 170.496094 130.570313 C 171.902344 132.136719 171.40625 135.1875 171.570313 137.25 Z M 111.769531 133.785156 L 112.183594 135.105469 C 111.523438 134.777344 110.695313 135.1875 110.367188 135.683594 C 110.53125 137.417969 112.015625 138.570313 112.265625 140.222656 C 109.378906 139.644531 106.242188 142.363281 103.109375 140.550781 C 101.046875 139.476563 98.65625 138.160156 96.34375 139.394531 L 93.789063 140.304688 C 94.363281 138.40625 95.851563 136.921875 97.085938 135.105469 C 97.746094 133.457031 99.398438 132.796875 100.632813 131.808594 C 103.6875 133.042969 106.984375 132.550781 109.621094 130.816406 C 110.863281 131.148438 111.109375 132.796875 111.769531 133.785156 Z M 165.136719 134.941406 C 165.382813 137.5 164.558594 140.054688 164.640625 142.613281 C 163.324219 143.023438 162.746094 141.210938 161.921875 140.46875 L 161.835938 133.785156 C 162.578125 131.394531 164.394531 134.035156 165.136719 134.941406 Z M 130.824219 135.1875 C 129.746094 137.828125 130.90625 141.871094 127.855469 143.023438 C 127.773438 140.714844 129.089844 137.992188 127.605469 135.929688 C 126.78125 135.765625 126.699219 136.757813 126.203125 137.003906 C 126.285156 137.664063 126.453125 138.160156 126.039063 138.734375 C 125.710938 138.902344 125.460938 138.570313 125.378906 138.324219 C 125.460938 137.25 126.535156 136.921875 126.203125 135.765625 C 126.453125 134.859375 126.535156 133.703125 127.03125 132.960938 C 128.265625 133.703125 131.070313 133.210938 130.824219 135.1875 Z M 269.644531 133.292969 C 290.515625 158.039063 296.699219 189.875 296.371094 221.878906 C 296.203125 222.871094 296.289063 223.777344 296.371094 224.851563 C 295.214844 224.765625 296.203125 225.921875 295.871094 226.335938 C 295.214844 237.058594 293.320313 246.707031 290.679688 256.855469 C 289.195313 259.742188 289.113281 262.710938 287.546875 265.597656 C 287.214844 268.15625 285.484375 270.628906 284.988281 273.105469 C 283.664063 276.898438 281.441406 280.363281 280.453125 284.238281 C 279.296875 285.148438 279.460938 286.550781 278.554688 287.621094 C 276.160156 291.25 274.761719 295.457031 272.039063 298.757813 C 263.128906 312.203125 251.085938 325.152344 237.808594 334.96875 C 237.558594 335.050781 236.488281 335.296875 236.898438 335.792969 C 229.476563 341.152344 221.308594 345.855469 213.226563 350.0625 C 212.152344 350.722656 210.175781 351.136719 208.6875 351.960938 C 207.699219 353.03125 206.132813 352.621094 205.140625 353.609375 C 203.410156 353.855469 201.925781 355.011719 200.277344 355.507813 C 183.53125 360.949219 166.621094 365.074219 148.476563 364.664063 C 147.734375 364.414063 146.246094 364.664063 145.421875 364.414063 C 132.722656 364.167969 119.9375 362.519531 108.140625 359.464844 C 107.644531 358.722656 106.984375 359.464844 106.324219 358.972656 C 104.839844 358.144531 102.613281 358.3125 101.703125 356.992188 L 101.621094 357.402344 C 88.34375 353.195313 75.558594 346.101563 63.847656 338.101563 C 63.105469 337.441406 62.277344 336.863281 61.785156 335.957031 C 61.535156 335.875 61.535156 336.207031 61.535156 336.453125 L 61.289063 335.792969 L 60.871094 335.957031 C 58.8125 334.390625 56.585938 332.65625 54.9375 330.925781 C 51.96875 328.78125 48.832031 326.71875 46.027344 324.078125 C 45.617188 322.675781 43.96875 321.851563 42.894531 320.699219 C 35.636719 312.695313 28.871094 304.613281 23.59375 295.457031 C 23.757813 294.714844 22.6875 294.46875 22.601563 293.808594 C 19.386719 288.199219 15.757813 282.425781 13.613281 276.320313 C 7.097656 262.132813 2.972656 246.542969 1.074219 230.953125 C 0 213.382813 2.394531 195.734375 6.765625 179.070313 C 7.179688 178.660156 7.097656 177.75 7.261719 177.171875 C 8.910156 172.226563 10.230469 167.109375 12.289063 162.410156 C 13.449219 161.75 12.789063 159.851563 14.191406 159.191406 C 14.355469 158.285156 15.261719 157.789063 15.015625 156.71875 C 18.394531 150.285156 21.945313 143.765625 25.65625 137.582031 C 26.5625 136.507813 27.386719 135.023438 28.789063 134.613281 L 29.035156 134.859375 C 25.820313 145.085938 24.582031 155.976563 23.59375 166.78125 C 23.429688 178.410156 24.746094 191.445313 26.976563 202.660156 C 29.945313 212.558594 32.664063 222.707031 37.945313 231.777344 C 40.914063 237.46875 44.621094 242.832031 48.167969 248.277344 C 52.046875 253.058594 56.417969 257.925781 60.871094 262.382813 C 82.15625 282.753906 107.808594 294.550781 136.183594 297.355469 C 136.269531 297.519531 136.433594 297.4375 136.597656 297.4375 L 136.515625 297.105469 C 138.660156 297.765625 140.144531 297.023438 142.121094 297.683594 C 148.804688 297.4375 155.652344 297.765625 162.246094 296.941406 C 183.035156 294.714844 201.925781 287.292969 219.164063 276.15625 C 232.199219 267.164063 243.828125 255.453125 252.652344 242.335938 C 260.902344 228.890625 267.828125 214.457031 271.460938 198.867188 C 273.6875 188.144531 274.925781 178.164063 274.511719 166.945313 C 274.511719 163.234375 274.101563 159.273438 273.769531 155.726563 C 272.863281 153.5 273.359375 151.4375 272.53125 149.128906 C 271.621094 143.683594 270.140625 138.902344 268.242188 133.871094 C 268.492188 133.375 269.070313 132.960938 269.644531 133.292969 Z M 178.171875 134.777344 C 177.34375 135.765625 175.777344 136.261719 174.371094 136.179688 C 174.210938 135.355469 174.210938 134.28125 174.871094 133.785156 C 176.109375 133.210938 177.425781 133.785156 178.171875 134.777344 Z M 197.554688 135.683594 C 198.703125 135.519531 200.109375 133.375 200.769531 135.601563 C 202.664063 138.488281 204.398438 141.375 205.96875 144.34375 C 203.988281 143.933594 202.007813 142.199219 199.699219 143.023438 C 196.648438 145.085938 192.109375 144.015625 189.386719 142.117188 C 187.410156 142.199219 186.007813 143.765625 184.273438 144.34375 L 181.304688 145.582031 C 182.046875 144.425781 183.449219 143.355469 184.769531 142.695313 L 190.460938 138.652344 C 190.789063 138.160156 190.460938 137.25 189.71875 137.5 C 187.65625 137.085938 187.324219 139.394531 185.675781 139.972656 C 183.53125 141.292969 181.304688 142.449219 178.914063 143.273438 C 180.066406 140.714844 181.714844 137.992188 183.449219 135.601563 C 184.851563 133.871094 187.574219 133.292969 189.46875 134.28125 C 191.945313 135.683594 194.746094 136.921875 197.554688 135.683594 Z M 119.441406 136.015625 L 119.277344 136.179688 C 118.945313 136.015625 118.285156 135.4375 118.699219 134.859375 L 119.027344 134.363281 C 119.359375 134.777344 120.019531 135.519531 119.441406 136.015625 Z M 59.886719 136.839844 C 60.464844 142.695313 60.464844 148.304688 56.664063 152.757813 C 55.183594 154.984375 53.863281 157.707031 51.71875 159.355469 L 51.144531 159.109375 C 49.328125 154.078125 50.234375 147.890625 52.214844 143.023438 C 53.949219 140.46875 55.515625 137.332031 58.238281 135.601563 C 58.980469 135.519531 59.886719 136.015625 59.886719 136.839844 Z M 243.910156 142.117188 L 243.992188 141.953125 C 244.652344 144.34375 246.46875 146.160156 246.632813 148.882813 L 246.960938 149.210938 C 246.960938 153.253906 247.128906 156.304688 246.386719 160.183594 L 245.394531 160.183594 C 239.867188 154.574219 234.257813 146.324219 238.136719 138.160156 L 238.878906 136.671875 C 240.941406 138.074219 242.589844 140.054688 243.910156 142.117188 Z M 45.617188 143.765625 C 44.460938 149.457031 45.285156 154.902344 45.371094 160.84375 C 44.214844 161.089844 43.308594 159.6875 42.398438 159.109375 C 39.015625 155.152344 37.449219 150.035156 38.359375 144.511719 C 39.265625 142.035156 39.511719 139.3125 40.914063 137.085938 L 41.328125 137.25 Z M 177.097656 138.40625 C 177.015625 140.386719 176.191406 142.53125 174.128906 143.683594 C 173.304688 144.261719 172.148438 145.003906 171.078125 144.34375 C 169.757813 142.613281 172.3125 141.539063 172.972656 140.222656 C 174.210938 139.3125 175.53125 138.074219 177.097656 138.40625 Z M 257.933594 155.644531 L 257.933594 156.46875 C 257.4375 156.140625 257.355469 156.964844 257.027344 157.210938 C 256.035156 159.273438 254.054688 161.996094 251.578125 162.078125 L 251.335938 161.667969 C 252.570313 155.808594 251.578125 149.707031 252.160156 143.765625 C 254.222656 142.613281 253.644531 139.644531 256.117188 139.148438 C 258.839844 143.683594 259.996094 150.367188 257.933594 155.644531 Z M 129.171875 165.132813 L 132.554688 177.257813 C 131.730469 177.667969 131.320313 178.742188 130.328125 179.070313 C 127.113281 169.335938 123.976563 159.355469 121.914063 149.375 C 120.84375 146.078125 119.277344 143.023438 118.121094 139.808594 C 123.152344 147.726563 126.453125 156.304688 129.171875 165.132813 Z M 160.105469 140.46875 C 161.179688 142.859375 163.242188 144.839844 164.972656 146.738281 C 165.796875 146.902344 166.785156 145.335938 167.117188 146.738281 C 167.363281 147.480469 166.621094 148.222656 167.363281 148.714844 C 169.839844 146.820313 173.136719 148.058594 176.023438 147.230469 C 176.4375 148.058594 175.367188 148.46875 175.199219 149.210938 C 173.136719 151.273438 170.085938 152.261719 167.28125 151.109375 C 166.210938 151.769531 166.289063 153.089844 166.289063 154.324219 C 166.621094 154.65625 166.703125 155.5625 167.363281 155.316406 C 169.589844 154.902344 171.488281 153.582031 173.796875 153.746094 L 173.550781 154.574219 C 171.652344 156.304688 170.496094 158.945313 168.105469 160.183594 C 165.796875 161.007813 165.960938 157.789063 164.066406 158.121094 C 162.246094 159.523438 160.683594 155.726563 159.777344 158.53125 C 158.703125 158.699219 157.546875 158.203125 156.722656 157.542969 C 155.074219 155.480469 155.238281 153.089844 156.0625 150.859375 L 155.734375 148.882813 C 157.632813 149.128906 159.117188 151.191406 159.527344 153.003906 C 159.527344 153.746094 159.527344 154.65625 160.351563 154.820313 C 161.179688 154.820313 161.425781 153.996094 161.921875 153.5 C 163.898438 150.117188 158.621094 149.292969 159.28125 146.160156 C 159.777344 144.425781 159.941406 142.199219 159.691406 140.46875 Z M 116.472656 143.191406 C 115.648438 143.519531 115.070313 142.613281 114.410156 142.199219 L 114.328125 141.621094 C 115.070313 141.789063 116.058594 142.53125 116.472656 143.191406 Z M 102.449219 144.015625 C 105.253906 144.675781 108.46875 144.015625 110.945313 142.695313 C 112.511719 142.53125 112.429688 144.261719 113.089844 145.085938 C 113.335938 145.828125 113.496094 146.820313 113.496094 147.5625 C 115.480469 149.542969 116.882813 152.097656 119.769531 152.675781 C 120.101563 153.089844 120.59375 153.582031 120.265625 154.078125 C 120.019531 154.40625 119.605469 154.078125 119.441406 153.996094 C 118.285156 153.746094 117.703125 151.355469 116.222656 152.347656 C 114.820313 153.746094 117.703125 154.40625 118.121094 155.644531 C 117.703125 156.140625 116.636719 155.5625 116.304688 156.46875 C 117.132813 159.769531 120.761719 160.925781 123.070313 162.65625 C 121.996094 163.234375 120.761719 161.914063 119.769531 161.253906 C 118.945313 160.511719 118.121094 159.605469 116.882813 160.183594 C 116.472656 160.511719 116.472656 161.171875 116.882813 161.5 L 120.429688 165.046875 C 120.59375 165.789063 119.523438 165.875 119.277344 166.535156 C 120.183594 170.492188 125.050781 169.996094 126.371094 173.378906 L 125.132813 172.882813 C 119.605469 169.585938 115.8125 162.902344 109.871094 160.511719 C 109.128906 160.347656 108.554688 160.757813 108.222656 161.335938 C 108.554688 162.410156 108.222656 163.8125 109.210938 164.554688 C 109.210938 166.367188 111.6875 169.007813 109.460938 169.996094 C 107.808594 169.914063 106.324219 169.171875 104.921875 170.164063 C 104.097656 170.65625 104.015625 171.648438 104.097656 172.390625 C 104.757813 173.214844 105.496094 172.308594 106.242188 172.308594 L 110.121094 174.535156 C 109.703125 175.359375 109.460938 176.101563 109.871094 177.007813 L 109.621094 177.257813 C 108.964844 176.925781 108.386719 176.101563 108.800781 175.359375 C 108.386719 174.121094 106.738281 174.78125 105.664063 174.78125 C 104.429688 175.605469 105.496094 176.84375 104.675781 177.832031 C 106.65625 178.164063 105.746094 180.472656 107.152344 181.378906 C 108.304688 181.875 109.046875 182.453125 109.046875 183.773438 L 111.191406 185.175781 C 110.695313 185.917969 110.695313 186.824219 110.039063 187.484375 C 107.726563 184.679688 104.59375 187.566406 102.203125 188.308594 C 99.316406 189.382813 96.917969 187.238281 94.613281 185.917969 C 91.5625 186.90625 88.589844 189.300781 85.039063 187.730469 C 84.546875 184.351563 83.230469 181.214844 83.394531 177.75 C 87.355469 179.566406 91.890625 179.320313 95.851563 177.585938 C 98.40625 178.246094 100.964844 180.472656 103.605469 178.90625 C 104.015625 178.660156 103.851563 178 103.6875 177.585938 C 102.859375 176.429688 101.289063 176.925781 100.304688 176.101563 C 97.253906 173.628906 93.371094 174.535156 90.160156 176.101563 C 87.847656 176.183594 86.035156 175.113281 84.21875 174.039063 C 82.40625 171.484375 83.808594 168.429688 83.890625 165.460938 C 85.539063 164.304688 86.859375 166.617188 88.507813 166.699219 C 91.148438 167.441406 94.035156 166.535156 96.261719 165.296875 C 97.996094 165.378906 99.230469 166.863281 100.882813 167.191406 C 103.769531 167.277344 107.234375 167.851563 108.800781 164.800781 C 108.554688 164.140625 108.554688 163.234375 107.726563 163.152344 C 105.496094 162.738281 104.179688 164.800781 101.953125 164.058594 C 99.230469 163.894531 97.164063 160.183594 94.363281 162.410156 C 91.230469 163.480469 88.507813 162.492188 85.289063 161.914063 C 84.960938 159.355469 86.28125 156.800781 86.941406 154.324219 C 88.589844 154.324219 89.992188 155.316406 91.726563 155.316406 C 94.859375 155.644531 98.160156 151.519531 100.964844 155.066406 C 104.015625 156.058594 108.058594 155.398438 110.863281 153.746094 C 111.6875 154.078125 112.511719 154.574219 113.496094 154.242188 C 113.746094 153.582031 114.410156 152.757813 113.828125 152.097656 C 112.84375 150.449219 111.027344 150.613281 109.539063 150.613281 C 107.152344 151.851563 103.933594 152.921875 101.210938 151.605469 C 96.917969 147.890625 92.714844 154.242188 88.179688 151.605469 C 89.664063 148.882813 89.664063 144.261719 93.621094 143.765625 C 96.34375 142.941406 100.058594 141.046875 102.449219 144.015625 Z M 127.441406 146.242188 C 127.195313 146.488281 127.113281 146.902344 126.78125 146.984375 L 126.371094 146.984375 C 126.863281 146.160156 126.203125 144.425781 127.605469 144.097656 C 128.265625 144.839844 127.441406 145.5 127.441406 146.242188 Z M 191.945313 146.652344 C 194.914063 147.644531 199.203125 147.808594 201.84375 145.996094 C 203.90625 145.914063 205.140625 147.808594 207.203125 147.808594 C 209.101563 149.953125 209.597656 152.839844 210.503906 155.5625 C 206.628906 158.039063 204.070313 153.335938 200.027344 154.078125 C 196.730469 155.644531 192.441406 155.976563 189.386719 153.5 C 186.171875 153.003906 183.863281 155.894531 180.5625 155.152344 C 181.882813 153.5 183.777344 152.757813 184.851563 150.859375 C 184.851563 150.449219 184.851563 149.953125 184.355469 149.789063 C 182.289063 150.53125 181.140625 152.757813 178.996094 153.253906 L 177.511719 153.832031 C 178.171875 150.613281 182.210938 149.375 184.605469 147.066406 C 186.414063 144.921875 190.046875 144.511719 191.945313 146.652344 Z M 133.378906 145.417969 C 134.039063 148.714844 134.699219 152.429688 134.289063 155.726563 C 133.628906 156.550781 133.214844 155.316406 132.554688 155.316406 C 132.554688 153.996094 132.804688 152.511719 131.484375 151.933594 L 131.320313 151.933594 C 132.0625 149.871094 132.636719 147.644531 133.050781 145.417969 Z M 69.121094 147.480469 C 66.734375 152.839844 65.578125 159.6875 59.554688 162.65625 C 58.648438 162.820313 57.496094 163.398438 56.664063 162.738281 L 56.835938 161.832031 C 60.382813 157.542969 62.855469 152.839844 64.753906 147.890625 C 66.15625 146.984375 67.640625 146.324219 69.289063 146.160156 Z M 151.363281 147.5625 C 150.949219 147.5625 151.113281 146.984375 151.199219 146.820313 C 151.28125 147.066406 151.691406 147.316406 151.363281 147.5625 Z M 231.203125 148.140625 C 231.371094 149.128906 231.949219 148.964844 232.609375 149.457031 C 235.003906 154.324219 237.394531 158.53125 240.777344 162.988281 C 240.941406 163.480469 240.695313 163.976563 240.199219 163.976563 C 232.113281 162.820313 229.226563 153.832031 227.824219 147.066406 C 229.0625 147.066406 229.804688 148.304688 231.203125 148.140625 Z M 126.371094 148.304688 C 126.453125 148.386719 126.371094 148.46875 126.285156 148.550781 C 125.953125 148.632813 125.953125 148.386719 125.789063 148.140625 C 125.953125 148.386719 126.203125 148.222656 126.371094 148.304688 Z M 150.289063 152.179688 C 150.785156 156.800781 148.558594 160.429688 148.476563 164.636719 C 149.054688 166.617188 149.21875 168.925781 150.621094 170.574219 C 149.796875 171.398438 148.394531 172.226563 147.15625 171.8125 C 145.671875 169.832031 143.691406 167.851563 141.214844 167.605469 C 140.226563 168.429688 140.308594 169.914063 139.816406 171.070313 C 139.320313 171.398438 138.496094 171.070313 138.660156 170.410156 C 138.496094 169.335938 139.484375 168.019531 138.246094 167.277344 C 137.257813 167.109375 137.339844 168.429688 136.84375 168.84375 C 136.019531 166.285156 139.238281 163.234375 136.351563 161.253906 C 135.277344 160.84375 135.113281 162.160156 134.699219 162.738281 L 134.453125 164.058594 C 135.03125 160.015625 137.011719 155.5625 138.246094 151.273438 C 139.648438 155.644531 140.0625 160.347656 140.640625 165.046875 C 140.96875 165.957031 141.546875 166.863281 142.453125 167.441406 C 143.609375 167.523438 145.753906 169.335938 146.246094 167.191406 C 146.992188 160.84375 147.898438 154.324219 149.546875 148.304688 C 150.867188 149.292969 150.039063 150.859375 150.289063 152.179688 Z M 119.441406 149.210938 L 119.441406 149.625 C 118.863281 149.542969 117.871094 149.292969 118.203125 148.632813 C 118.699219 148.882813 119.359375 148.386719 119.441406 149.210938 Z M 153.011719 153.171875 C 152.847656 153.253906 152.765625 153.417969 152.515625 153.417969 C 152.1875 152.429688 152.1875 151.519531 152.515625 150.53125 L 153.09375 150.285156 C 153.996094 151.109375 153.09375 152.179688 153.011719 153.171875 Z M 127.6875 154.324219 C 127.6875 154.492188 127.855469 154.738281 127.605469 154.820313 C 127.195313 154.902344 127.277344 154.492188 127.277344 154.242188 C 127.441406 154.160156 127.523438 154.40625 127.6875 154.324219 Z M 129.996094 155.152344 L 129.585938 154.820313 L 129.996094 154.820313 Z M 129.585938 155.726563 C 129.828125 156.140625 129.746094 156.882813 129.257813 156.964844 L 128.925781 156.964844 C 128.679688 156.46875 129.257813 155.894531 129.585938 155.726563 Z M 191.53125 158.699219 C 194.664063 158.863281 197.554688 158.78125 200.277344 156.964844 C 201.84375 156.636719 202.996094 158.039063 204.484375 158.367188 C 206.539063 159.273438 209.101563 159.273438 211.078125 158.367188 C 212.320313 160.511719 212.152344 163.5625 212.648438 166.121094 C 209.597656 166.699219 205.96875 169.585938 203.164063 166.78125 C 199.535156 163.730469 196.070313 168.679688 191.945313 167.191406 C 190.046875 166.535156 188.398438 164.800781 186.253906 165.132813 C 184.109375 166.535156 181.386719 168.019531 178.828125 167.027344 C 177.179688 166.367188 176.355469 164.554688 174.621094 164.304688 C 173.222656 164.882813 172.726563 166.285156 171.570313 167.027344 C 171.984375 168.925781 173.878906 167.441406 174.953125 168.265625 C 177.261719 171.316406 181.140625 170.328125 184.109375 169.503906 C 187.65625 166.863281 190.460938 171.484375 194.253906 170.410156 C 196.730469 170.742188 198.132813 168.265625 200.523438 168.84375 C 203.410156 170.742188 206.953125 172.058594 210.257813 170.574219 C 210.746094 169.914063 211.824219 169.914063 212.484375 169.503906 C 213.722656 171.484375 212.484375 173.957031 212.980469 176.101563 C 214.296875 179.234375 210.339844 177.917969 209.183594 179.234375 C 205.886719 181.464844 202.421875 179.402344 199.367188 178.082031 C 195.90625 178 192.523438 181.875 189.140625 178.90625 C 185.015625 174.453125 181.058594 181.710938 176.519531 178.574219 C 173.964844 175.855469 171.078125 178.082031 168.4375 179.070313 C 168.273438 176.679688 165.21875 174.371094 167.28125 172.058594 C 171.324219 167.441406 173.136719 161.996094 177.839844 157.625 C 181.222656 158.945313 184.933594 157.789063 188.316406 156.800781 C 189.71875 156.550781 190.460938 158.285156 191.53125 158.699219 Z M 122.246094 158.367188 L 122.246094 158.863281 C 121.914063 158.945313 121.171875 158.945313 121.089844 158.367188 L 121.089844 157.542969 C 121.585938 157.625 122.164063 157.789063 122.246094 158.367188 Z M 155.488281 162.988281 C 154.660156 164.800781 154.828125 167.027344 153.996094 168.84375 C 152.105469 167.191406 151.03125 164.636719 151.691406 162.078125 C 152.105469 160.84375 151.773438 159.273438 153.09375 158.53125 C 154.085938 159.6875 156.148438 161.007813 155.488281 162.988281 Z M 131.648438 159.6875 C 131.070313 160.757813 132.554688 162.902344 130.328125 162.738281 C 129.828125 161.914063 131.234375 161.253906 130.90625 160.183594 C 131.152344 160.015625 131.320313 159.605469 131.648438 159.6875 Z M 161.835938 164.636719 L 162.164063 165.046875 C 164.3125 161.996094 168.105469 163.730469 170.578125 161.5 C 171.160156 162.246094 170.328125 162.988281 170.085938 163.730469 C 168.1875 166.039063 166.871094 170.574219 162.992188 169.914063 C 161.179688 169.007813 159.117188 168.761719 157.136719 168.265625 C 156.476563 166.535156 157.546875 164.636719 158.371094 163.152344 C 159.28125 162.328125 160.105469 160.925781 161.425781 161.007813 C 161.921875 162.078125 161.011719 163.5625 161.835938 164.636719 Z M 112.757813 165.378906 C 112.429688 166.78125 113.996094 167.9375 112.757813 169.089844 C 111.851563 167.769531 111.769531 165.707031 111.109375 164.058594 C 112.015625 163.976563 112.347656 164.800781 112.757813 165.378906 Z M 133.789063 167.027344 C 133.546875 167.109375 133.378906 167.191406 133.214844 167.191406 L 133.546875 166.449219 C 133.871094 166.449219 133.710938 166.863281 133.789063 167.027344 Z M 118.367188 170.824219 C 117.789063 171.976563 116.800781 170.742188 115.976563 170.988281 C 115.976563 169.996094 115.398438 169.007813 115.5625 168.265625 C 117.378906 168.019531 117.132813 170.082031 118.367188 170.824219 Z M 54.277344 171.8125 C 58.402344 179.8125 57.328125 189.382813 54.277344 197.464844 C 52.542969 197.710938 52.214844 195.816406 51.554688 194.742188 C 46.113281 188.472656 45.78125 178.660156 49.082031 171.398438 C 50.234375 170.492188 49.988281 167.851563 52.046875 168.429688 Z M 132.96875 169.667969 C 133.050781 169.996094 132.804688 170.164063 132.554688 170.410156 L 132.226563 170.410156 C 132.144531 169.914063 132.308594 169.503906 132.554688 169.171875 C 132.886719 169.007813 132.96875 169.421875 132.96875 169.667969 Z M 247.539063 173.132813 C 249.273438 179.234375 250.59375 186.90625 246.960938 192.597656 C 245.644531 194.578125 244.488281 196.558594 242.921875 198.289063 C 242.097656 198.207031 242.097656 197.050781 241.601563 196.476563 C 240.941406 193.421875 240.199219 190.289063 239.453125 187.238281 C 239.210938 182.867188 240.28125 178.90625 241.765625 175.03125 C 242.589844 172.96875 243.746094 171.234375 245.3125 169.667969 C 246.960938 169.914063 246.960938 171.894531 247.539063 173.132813 Z M 114.738281 172.636719 C 114.902344 173.132813 114.410156 173.792969 113.914063 173.378906 C 113.007813 172.800781 113.664063 171.976563 112.84375 171.316406 C 112.84375 170.742188 113.496094 170.824219 113.828125 170.492188 C 114.492188 170.742188 114.492188 171.894531 114.738281 172.636719 Z M 134.453125 171.398438 C 134.617188 171.730469 134.289063 171.730469 134.121094 171.894531 L 134.121094 171.398438 Z M 143.527344 171.648438 C 143.9375 174.78125 143.691406 178.410156 143.773438 181.792969 C 143.363281 182.289063 142.703125 182.289063 142.289063 181.628906 C 141.546875 178.90625 142.703125 175.855469 142.703125 172.882813 C 142.949219 172.472656 142.535156 171.234375 143.527344 171.648438 Z M 122.410156 175.277344 C 123.894531 177.007813 126.535156 177.917969 127.9375 179.976563 C 127.605469 180.226563 127.195313 180.472656 126.863281 180.804688 C 126.617188 181.792969 128.597656 181.214844 127.6875 182.207031 C 126.863281 182.371094 126.863281 181.132813 125.953125 181.296875 C 124.71875 179.8125 124.882813 177.75 122.824219 176.925781 C 121.585938 176.597656 121.007813 175.605469 120.347656 174.371094 C 119.851563 174.203125 119.191406 174.699219 118.945313 175.277344 C 118.945313 175.855469 118.699219 176.679688 117.871094 176.515625 C 117.132813 176.429688 116.882813 175.855469 116.636719 175.277344 C 116.472656 174.535156 116.882813 173.710938 117.460938 173.378906 C 118.699219 173.875 119.027344 172.308594 120.101563 172.636719 C 120.761719 173.628906 121.746094 174.285156 122.410156 175.277344 Z M 164.148438 176.429688 C 163.984375 177.257813 165.054688 177.503906 164.972656 178.246094 C 166.210938 180.390625 165.300781 182.867188 164.890625 185.011719 C 165.796875 186.660156 167.53125 187.152344 168.929688 188.308594 C 172.726563 191.195313 174.621094 195.734375 173.796875 200.023438 C 173.714844 204.148438 170.246094 207.527344 167.035156 209.179688 C 165.21875 209.589844 163.570313 210.496094 161.835938 210.003906 C 160.847656 209.671875 159.859375 208.929688 158.703125 208.847656 C 157.960938 208.519531 157.382813 207.691406 157.054688 206.949219 C 160.765625 206.949219 164.3125 205.054688 167.117188 202.414063 C 167.199219 201.835938 166.453125 201.425781 165.960938 201.257813 C 163.074219 201.671875 160.4375 201.507813 157.878906 202.660156 C 157.300781 202.578125 156.640625 202.496094 156.558594 201.753906 C 157.054688 200.515625 157.878906 199.527344 158.949219 198.867188 C 160.683594 196.144531 164.066406 195.320313 164.808594 192.1875 C 164.394531 191.445313 163.324219 191.691406 162.910156 192.019531 C 158.949219 193.421875 153.753906 195.320313 153.011719 200.023438 C 152.765625 200.597656 152.105469 200.515625 151.445313 200.515625 C 149.796875 199.199219 151.691406 197.136719 151.199219 195.402344 C 151.03125 192.597656 151.445313 189.792969 150.867188 187.320313 L 150.371094 186.90625 C 148.226563 188.804688 147.652344 191.773438 146.496094 194.246094 C 146.246094 194.824219 146.414063 195.566406 145.914063 196.0625 C 145.421875 193.011719 146.660156 189.132813 143.855469 187.238281 C 143.113281 187.238281 142.371094 187.238281 141.871094 186.742188 C 142.617188 186.328125 144.1875 187.320313 144.679688 185.917969 C 144.515625 184.84375 143.113281 185.09375 142.453125 184.351563 C 143.03125 183.9375 144.515625 185.257813 145.257813 184.269531 C 146.992188 182.371094 146.078125 180.0625 146.496094 177.75 L 146.992188 177.75 C 149.628906 173.875 154.328125 171.8125 158.867188 172.96875 C 160.929688 173.460938 162.746094 174.699219 164.148438 176.429688 Z M 60.628906 196.394531 C 60.296875 196.476563 60.046875 196.308594 60.046875 196.0625 C 60.542969 189.957031 63.019531 184.761719 61.535156 178.328125 C 62.773438 176.101563 64.667969 174.617188 66.402344 172.882813 C 68.542969 181.378906 65.246094 189.628906 60.628906 196.394531 Z M 42.648438 177.832031 C 41.90625 184.351563 43.636719 190.949219 46.277344 196.640625 C 42.976563 196.558594 41.574219 192.847656 39.429688 190.949219 C 37.367188 187.070313 37.699219 182.535156 37.121094 178.082031 C 37.039063 176.265625 37.039063 174.863281 37.53125 173.214844 C 39.59375 174.121094 42.070313 175.441406 42.648438 177.832031 Z M 136.761719 173.710938 C 136.597656 173.875 136.597656 174.121094 136.351563 174.285156 L 136.183594 174.285156 C 136.101563 174.039063 136.84375 173.792969 136.351563 173.460938 C 136.597656 173.378906 136.597656 173.628906 136.761719 173.710938 Z M 285.234375 187.730469 C 287.546875 196.226563 287.953125 205.546875 288.203125 214.539063 C 288.203125 225.097656 287.546875 236.316406 285.070313 246.132813 C 280.535156 268.730469 270.222656 290.011719 255.539063 307.664063 L 255.128906 307.664063 C 239.039063 327.378906 217.84375 340 195.410156 348.660156 C 187.078125 351.628906 178.746094 353.527344 170.328125 354.929688 C 170.003906 354.515625 169.839844 355.175781 169.507813 355.175781 C 168.273438 355.425781 166.785156 355.09375 165.878906 355.917969 C 152.105469 357.238281 136.183594 357.816406 121.996094 354.433594 C 111.933594 352.453125 102.285156 349.320313 93.042969 345.359375 C 79.519531 339.917969 67.640625 331.007813 56.09375 321.359375 C 46.769531 312.695313 37.53125 303.210938 31.265625 292.570313 C 30.6875 292.488281 30.769531 291.910156 30.6875 291.5 C 22.191406 277.640625 16.003906 262.710938 12.871094 246.707031 C 12.042969 246.542969 12.871094 245.636719 12.128906 245.472656 C 11.960938 243.328125 11.878906 241.265625 11.054688 239.285156 L 11.296875 238.542969 C 7.667969 217.179688 10.230469 195.652344 16.414063 175.855469 C 17.738281 186.988281 18.726563 198.125 21.613281 208.765625 C 25.738281 225.097656 32.585938 239.863281 43.058594 253.390625 C 44.132813 253.390625 43.308594 254.296875 44.132813 254.710938 C 47.761719 259.164063 52.214844 263.617188 56.09375 268.15625 C 58.152344 269.96875 60.214844 272.277344 62.609375 273.597656 L 62.527344 273.679688 C 64.011719 274.589844 64.753906 276.402344 66.566406 276.816406 C 72.421875 281.351563 79.4375 284.980469 85.785156 288.777344 C 89.582031 289.847656 92.386719 292.734375 96.261719 293.644531 C 97.582031 295.128906 99.808594 294.550781 101.128906 296.035156 C 106.984375 297.933594 112.429688 299.910156 118.535156 301.230469 C 122.742188 302.46875 127.113281 303.210938 131.484375 303.871094 C 132.0625 304.035156 131.648438 303.292969 132.308594 303.625 C 132.226563 303.789063 132.0625 303.539063 131.894531 303.871094 C 141.871094 305.109375 153.175781 305.191406 162.496094 303.789063 C 164.726563 303.953125 167.117188 302.882813 169.425781 303.046875 C 175.367188 301.726563 181.140625 300.984375 186.828125 299.085938 C 204.070313 294.632813 220.074219 285.148438 233.929688 273.105469 C 234.507813 272.855469 235.003906 272.113281 235.660156 271.703125 C 245.230469 262.628906 254.054688 253.226563 261.066406 242.335938 C 267.089844 232.355469 271.296875 221.550781 275.335938 210.910156 C 275.996094 208.269531 276.328125 205.546875 277.8125 203.238281 C 277.566406 201.507813 278.882813 199.691406 278.554688 197.796875 L 279.050781 196.96875 C 279.871094 192.105469 281.277344 186.082031 281.027344 181.214844 C 281.359375 180.308594 281.277344 179.320313 281.277344 178.410156 C 281.195313 177.089844 281.441406 175.195313 281.523438 173.792969 C 283.503906 178.164063 284.492188 183.03125 285.234375 187.730469 Z M 234.589844 178.246094 C 235.003906 180.144531 234.257813 182.039063 235.003906 183.691406 C 234.753906 187.816406 236.238281 192.679688 236.40625 196.96875 C 234.671875 196.96875 234.175781 194.824219 233.105469 193.753906 C 231.121094 187.898438 228.898438 180.722656 230.300781 174.039063 C 232.363281 174.78125 233.1875 176.84375 234.589844 178.246094 Z M 112.59375 174.535156 L 112.59375 174.203125 L 113.007813 174.535156 Z M 252.902344 197.21875 C 251.996094 198.042969 250.921875 198.539063 249.847656 198.539063 C 253.066406 192.847656 254.714844 186 254.796875 179.152344 C 253.480469 175.773438 257.6875 176.183594 259.085938 174.535156 C 260.160156 182.535156 259.996094 191.9375 252.902344 197.21875 Z M 115.730469 175.9375 C 115.398438 175.6875 114.738281 175.195313 115.398438 174.78125 L 115.5625 174.78125 Z M 137.421875 175.277344 C 137.175781 175.773438 136.925781 175.441406 136.515625 175.441406 L 136.351563 175.359375 C 136.597656 175.277344 137.175781 174.699219 137.421875 175.277344 Z M 135.773438 175.359375 C 135.773438 175.523438 135.9375 175.773438 135.691406 175.855469 C 135.441406 175.9375 135.359375 175.6875 135.195313 175.605469 C 135.359375 175.523438 135.523438 175.277344 135.773438 175.359375 Z M 159.035156 176.761719 C 158.785156 178.660156 156.476563 178.988281 155.402344 180.308594 C 154.328125 180.804688 154.828125 179.566406 154.164063 179.234375 C 154.578125 177.339844 156.804688 177.089844 158.121094 175.9375 C 158.621094 175.9375 158.785156 176.429688 159.035156 176.761719 Z M 112.183594 179.648438 L 111.523438 179.648438 C 111.441406 178.574219 110.78125 176.84375 111.6875 176.183594 C 112.265625 177.171875 112.675781 178.410156 112.183594 179.648438 Z M 121.664063 177.75 C 121.421875 179.402344 120.59375 181.296875 121.421875 182.949219 C 121.914063 182.453125 122.65625 181.792969 123.398438 182.207031 C 124.140625 184.351563 128.761719 182.78125 126.78125 185.835938 C 124.308594 185.175781 121.503906 185.011719 119.769531 182.699219 L 120.019531 178.246094 C 120.429688 177.585938 121.089844 177.257813 121.664063 177.75 Z M 139.320313 177.585938 C 139.320313 179.320313 139.15625 181.628906 140.390625 183.113281 C 139.980469 184.019531 139.730469 185.503906 140.640625 186.164063 C 140.0625 186.164063 139.566406 186.824219 139.320313 187.320313 C 138.90625 191.445313 138.742188 195.980469 138.660156 199.445313 C 138.988281 201.257813 141.214844 201.753906 142.121094 202.992188 C 140.886719 203.816406 139.566406 202.660156 138.414063 202.167969 C 137.914063 201.257813 136.84375 201.257813 136.019531 200.765625 C 131.730469 198.539063 129.828125 193.671875 130.078125 188.886719 C 130.410156 183.609375 133.953125 179.320313 138.742188 177.585938 Z M 160.601563 179.894531 C 160.351563 181.214844 158.703125 181.792969 157.796875 182.699219 C 157.300781 182.535156 156.640625 182.453125 156.476563 181.875 C 156.890625 180.472656 158.621094 179.976563 159.691406 179.070313 C 160.1875 179.152344 160.351563 179.484375 160.601563 179.894531 Z M 116.472656 181.546875 C 115.8125 182.699219 115.070313 181.378906 114.410156 181.296875 C 114.160156 180.804688 114.738281 180.472656 114.902344 179.976563 C 115.894531 179.730469 116.058594 180.96875 116.472656 181.546875 Z M 179.488281 182.371094 C 182.539063 182.535156 184.933594 178.988281 187.902344 181.296875 C 191.285156 183.277344 195.492188 182.207031 198.703125 180.804688 C 201.761719 182.207031 205.226563 183.855469 208.6875 182.699219 C 209.925781 182.125 211.164063 181.296875 212.648438 181.214844 L 212.894531 181.546875 C 212.320313 184.269531 212.152344 187.484375 211.246094 190.207031 C 208.03125 190.703125 204.316406 192.929688 201.101563 191.03125 C 196.8125 188.226563 192.605469 192.929688 188.152344 191.113281 C 184.191406 187.816406 180.230469 192.433594 175.941406 191.277344 C 173.878906 188.640625 171.902344 186.246094 169.179688 184.351563 C 168.601563 182.617188 169.921875 181.132813 171.324219 180.472656 C 174.539063 178.742188 176.109375 183.113281 179.488281 182.371094 Z M 110.945313 180.804688 C 111.027344 180.886719 110.945313 180.96875 110.863281 181.050781 L 110.613281 181.050781 L 110.613281 180.722656 C 110.78125 180.722656 110.863281 180.636719 110.945313 180.804688 Z M 113.496094 185.09375 C 113.496094 185.175781 113.414063 185.257813 113.335938 185.339844 L 113.253906 185.011719 C 113.335938 185.011719 113.335938 185.175781 113.496094 185.09375 Z M 134.949219 186.660156 C 135.773438 190.535156 136.597656 194.496094 137.585938 198.371094 C 137.503906 199.113281 136.515625 199.03125 136.019531 198.867188 C 134.535156 198.125 134.453125 196.308594 134.121094 195.074219 C 133.214844 192.679688 133.132813 189.957031 131.484375 187.816406 C 132.0625 186.660156 134.617188 183.113281 134.949219 186.660156 Z M 126.617188 188.804688 C 125.789063 191.113281 127.03125 193.835938 127.6875 196.144531 C 125.871094 195.15625 126.371094 192.847656 124.636719 191.773438 C 124.882813 190.535156 123.730469 189.792969 123.398438 188.804688 C 123.730469 188.144531 124.554688 188.226563 125.132813 188.0625 C 125.710938 188.144531 126.203125 188.390625 126.617188 188.804688 Z M 113.828125 189.382813 C 114.492188 194.578125 115.398438 199.609375 116.058594 204.804688 C 112.757813 201.425781 112.757813 196.640625 111.933594 192.019531 C 112.015625 190.867188 110.945313 188.804688 113.007813 188.804688 C 113.414063 188.640625 113.664063 189.132813 113.828125 189.382813 Z M 99.316406 191.359375 C 102.777344 193.339844 107.316406 186.824219 109.460938 192.351563 C 109.460938 195.402344 110.449219 198.125 111.441406 200.765625 C 109.621094 200.351563 107.894531 198.949219 105.828125 199.855469 C 104.097656 200.847656 101.953125 201.175781 99.808594 201.011719 C 97.746094 199.941406 95.355469 198.539063 92.878906 199.445313 C 91.808594 199.941406 90.734375 201.011719 89.496094 200.765625 C 87.765625 197.546875 86.859375 194.246094 85.785156 190.949219 C 88.34375 191.113281 91.230469 191.855469 93.371094 189.382813 C 95.601563 189.382813 97.253906 191.359375 99.316406 191.359375 Z M 142.785156 189.710938 C 143.363281 193.421875 142.203125 196.226563 143.277344 199.855469 C 143.03125 200.351563 142.289063 200.847656 141.871094 200.269531 C 140.226563 196.96875 141.300781 193.257813 141.871094 189.628906 Z M 126.039063 196.96875 C 125.953125 197.136719 125.953125 197.382813 125.710938 197.546875 C 124.636719 197.21875 124.058594 195.816406 122.988281 195.320313 C 121.007813 193.503906 118.617188 192.679688 116.800781 190.785156 L 116.636719 189.957031 C 120.183594 191.445313 123.648438 193.917969 126.039063 196.96875 Z M 191.285156 194.992188 C 194.007813 194.414063 197.800781 192.1875 200.523438 194.742188 C 203.988281 196.558594 207.289063 194.414063 210.503906 193.753906 C 209.84375 197.050781 208.113281 200.515625 206.953125 203.488281 C 206.710938 204.230469 206.132813 205.054688 205.140625 204.722656 C 202.171875 205.136719 200.441406 202 197.472656 202.828125 C 193.925781 204.640625 189.140625 204.558594 186.007813 202 C 182.460938 201.339844 179.242188 205.796875 176.023438 202.660156 C 177.34375 199.941406 176.601563 197.21875 177.097656 194.578125 C 180.5625 195.320313 182.789063 192.269531 186.007813 193.175781 C 187.65625 194.082031 189.140625 195.484375 191.285156 194.992188 Z M 123.648438 198.289063 C 127.441406 202.496094 128.925781 207.859375 129.996094 213.382813 C 131.070313 215.613281 129.089844 218.746094 131.648438 220.230469 C 133.214844 219.984375 134.039063 218.332031 134.949219 217.179688 C 134.617188 211.816406 132.636719 207.363281 130.660156 202.578125 C 130.246094 201.507813 129.257813 200.515625 129.585938 199.199219 C 134.289063 202.496094 136.597656 207.609375 135.691406 212.972656 C 135.773438 215.777344 134.949219 218.828125 135.9375 221.714844 C 137.09375 221.878906 138.164063 223.695313 139.320313 222.871094 C 139.566406 222.539063 139.816406 222.128906 140.0625 221.796875 C 140.96875 222.539063 140.390625 224.191406 141.382813 225.015625 C 141.382813 226.167969 140.0625 226.167969 139.238281 226.582031 C 135.855469 227.324219 133.464844 224.851563 130.578125 224.023438 C 127.605469 224.851563 124.636719 227.078125 121.421875 225.34375 C 119.6875 224.851563 118.203125 222.953125 116.222656 223.777344 C 114.328125 224.765625 112.429688 226.335938 110.285156 225.757813 C 106.324219 223.53125 103.109375 220.3125 99.890625 216.683594 L 99.890625 216.355469 C 103.109375 217.507813 105.414063 213.054688 108.386719 215.777344 C 111.523438 218.085938 115.648438 217.097656 118.699219 215.28125 C 122.078125 215.941406 125.132813 219.570313 128.925781 217.179688 C 129.421875 217.097656 129.828125 216.519531 130.078125 216.1875 C 129.503906 212.972656 126.121094 215.445313 124.140625 214.457031 C 122.078125 213.796875 120.59375 211.074219 117.953125 212.394531 C 115.5625 214.042969 112.097656 214.871094 109.460938 213.136719 C 108.140625 212.066406 106.242188 211.15625 104.59375 212.066406 C 102.53125 213.46875 99.726563 213.796875 97.335938 213.632813 C 96.261719 212.3125 95.191406 210.582031 93.953125 209.425781 C 94.363281 208.847656 93.210938 208.601563 93.539063 207.941406 C 92.46875 207.199219 92.546875 205.796875 91.476563 205.300781 C 91.972656 204.640625 90.734375 204.3125 90.984375 203.734375 C 94.859375 199.773438 98.65625 205.21875 103.027344 204.0625 C 106.078125 202.828125 110.039063 202.332031 113.007813 204.476563 C 114.246094 207.117188 115.480469 210.085938 117.621094 212.148438 C 118.121094 212.3125 118.367188 212.066406 118.699219 211.734375 C 118.039063 210.828125 118.945313 210.25 118.367188 209.34375 L 118.367188 203.488281 C 119.441406 202.578125 120.761719 202.332031 122.164063 202.828125 C 123.070313 203.402344 124.140625 204.722656 125.214844 203.898438 C 125.628906 203.402344 125.460938 202.660156 125.214844 202.167969 C 123.730469 200.765625 121.828125 199.199219 119.523438 200.1875 C 118.945313 200.515625 118.203125 200.597656 117.621094 200.929688 C 117.296875 198.539063 116.304688 196.308594 116.636719 193.917969 C 119.191406 194.824219 121.503906 196.476563 123.648438 198.289063 Z M 129.007813 198.125 L 129.257813 198.539063 Z M 145.914063 199.609375 C 145.835938 199.773438 145.996094 199.941406 145.753906 200.023438 L 145.507813 200.023438 L 145.507813 199.609375 Z M 75.804688 214.210938 C 75.886719 218.332031 76.054688 222.871094 73.660156 226.167969 C 73.332031 226.253906 73.085938 226.085938 72.835938 225.839844 C 73.414063 218.746094 71.847656 212.3125 68.792969 206.621094 C 69.289063 204.394531 70.445313 202.496094 71.765625 200.683594 C 73.910156 204.890625 74.898438 209.753906 75.804688 214.210938 Z M 228.320313 207.445313 C 224.9375 212.640625 223.621094 218.746094 223.121094 225.097656 C 220.566406 223.449219 220.566406 220.394531 219.90625 217.757813 C 220.402344 216.4375 219.824219 214.871094 220.320313 213.46875 C 221.226563 209.09375 223.203125 205.21875 225.269531 201.339844 L 228.402344 206.125 Z M 67.640625 217.507813 C 68.296875 217.671875 67.886719 218.332031 67.96875 218.582031 C 68.136719 221.304688 68.628906 224.191406 68.464844 226.746094 C 65.824219 225.59375 63.679688 223.117188 61.289063 220.808594 C 56.753906 216.1875 55.101563 209.011719 57.246094 202.910156 C 62.03125 206.457031 66.402344 211.734375 67.640625 217.507813 Z M 239.949219 205.136719 C 241.4375 212.972656 237.890625 220.394531 231.785156 225.59375 C 230.464844 226.582031 229.144531 227.574219 227.496094 227.820313 C 226.996094 223.613281 228.652344 219.324219 229.722656 215.28125 C 229.640625 215.035156 229.394531 215.199219 229.226563 215.117188 C 229.3125 214.621094 229.640625 215.035156 229.886719 214.785156 L 229.640625 214.539063 C 232.199219 211.074219 234.09375 206.289063 238.632813 204.3125 C 239.210938 203.980469 239.785156 204.640625 239.949219 205.136719 Z M 192.769531 207.199219 C 195.078125 206.703125 197.472656 204.972656 199.78125 206.125 C 201.101563 207.28125 202.914063 207.28125 204.566406 207.527344 C 203.574219 210.496094 201.59375 213.960938 198.871094 216.1875 C 195.988281 212.972656 193.429688 217.839844 190.296875 217.015625 C 187.738281 217.261719 186.089844 215.28125 184.027344 214.292969 C 180.148438 215.53125 175.117188 218.332031 171.652344 214.210938 C 168.105469 214.953125 164.394531 216.929688 161.09375 214.785156 C 160.351563 214.539063 159.445313 214.042969 158.703125 213.46875 C 156.804688 212.808594 155.816406 215.117188 154.085938 215.117188 C 152.515625 215.613281 150.621094 215.859375 148.96875 215.363281 C 148.226563 213.300781 150.539063 212.066406 150.371094 210.003906 C 151.445313 209.179688 152.847656 209.09375 153.996094 208.519531 C 154.910156 209.753906 156.148438 211.242188 157.632813 211.898438 C 160.847656 213.714844 165.46875 213.796875 168.601563 211.816406 C 171.078125 210.496094 173.386719 208.1875 174.953125 205.878906 C 178.496094 208.023438 182.210938 206.042969 185.675781 205.300781 C 187.984375 206.125 190.128906 207.609375 192.769531 207.199219 Z M 141.710938 205.632813 C 141.710938 206.289063 141.050781 206.207031 140.640625 206.457031 C 140.390625 207.445313 140.0625 208.519531 139.730469 209.34375 C 139.980469 208.351563 138.742188 205.796875 140.558594 205.382813 C 141.132813 205.464844 141.300781 205.21875 141.710938 205.632813 Z M 143.609375 214.210938 L 144.929688 224.519531 C 145.257813 224.851563 145.589844 224.933594 145.996094 224.851563 L 148.226563 222.539063 L 148.640625 218.5 C 151.773438 218.664063 154.578125 218.332031 157.300781 216.929688 C 160.105469 216.847656 162.496094 220.066406 165.878906 218.746094 C 168.1875 218.582031 170.910156 215.777344 172.476563 218.5 L 176.769531 219.652344 C 178.914063 219.160156 180.972656 218.417969 183.035156 217.757813 C 187.078125 220.066406 191.699219 220.066406 195.738281 218.003906 C 195.988281 218.085938 196.316406 218.167969 196.480469 218.5 C 193.347656 222.128906 188.976563 224.851563 185.179688 227.488281 C 183.777344 226.664063 181.964844 226.167969 180.316406 226.582031 C 178.578125 227.242188 176.933594 228.644531 174.789063 228.066406 C 172.066406 228.148438 170.828125 224.4375 167.941406 225.921875 C 165.796875 226.996094 163.488281 227.902344 161.011719 226.996094 L 156.558594 224.851563 C 153.425781 226.253906 148.96875 227.574219 145.996094 225.015625 L 143.03125 224.683594 C 142.121094 219.242188 141.871094 214.042969 141.871094 208.269531 C 142.121094 207.859375 142.703125 208.023438 143.03125 208.105469 L 143.773438 208.847656 Z M 147.074219 210.414063 C 147.320313 211.734375 146.660156 212.972656 146.496094 213.878906 L 145.996094 213.714844 C 146.328125 212.394531 145.339844 210.746094 146.246094 209.34375 C 146.910156 209.261719 146.992188 210.003906 147.074219 210.414063 Z M 51.96875 214.042969 C 54.195313 220.476563 59.144531 226.996094 65.496094 230.128906 C 65.824219 230.789063 64.753906 230.953125 64.257813 231.203125 C 58.320313 231.695313 51.96875 229.304688 49.246094 223.613281 L 44.539063 212.3125 L 44.789063 211.074219 Z M 140.226563 212.640625 C 140.226563 212.890625 140.226563 213.382813 139.816406 213.21875 C 139.238281 213.46875 139.402344 212.808594 139.238281 212.558594 C 138.988281 211.40625 140.558594 211.570313 140.226563 212.640625 Z M 251.578125 212.972656 C 249.765625 220.5625 245.808594 229.46875 237.3125 231.449219 C 235.746094 231.777344 233.683594 231.117188 232.199219 232.027344 C 231.785156 231.53125 230.382813 232.191406 230.546875 230.953125 C 236.40625 227.488281 242.671875 222.375 244.488281 215.53125 C 246.632813 214.042969 249.273438 213.960938 251.578125 212.972656 Z M 140.0625 215.363281 C 140.0625 215.53125 140.144531 215.941406 139.730469 215.941406 L 139.484375 215.941406 C 139.320313 215.53125 139.648438 215.28125 140.0625 215.363281 Z M 296.039063 222.953125 L 296.121094 222.953125 L 296.121094 223.613281 L 296.039063 223.613281 Z M 122.492188 228.480469 C 125.214844 229.222656 127.9375 227.902344 130.246094 226.664063 C 133.214844 227.820313 136.269531 229.800781 139.816406 228.890625 C 141.546875 228.480469 143.113281 226.746094 144.929688 227.738281 C 148.144531 229.800781 152.515625 230.542969 155.734375 227.984375 C 159.117188 227.242188 160.847656 231.777344 164.640625 229.882813 C 166.785156 229.386719 169.015625 227.738281 171.324219 229.058594 C 173.714844 231.285156 176.933594 230.375 179.65625 229.714844 C 180.480469 229.304688 181.386719 228.398438 182.460938 228.808594 C 179.078125 231.117188 174.871094 232.6875 171.40625 235.492188 C 168.929688 237.636719 165.46875 239.121094 163.488281 241.84375 L 162.992188 241.84375 C 161.425781 243.328125 159.777344 245.140625 158.867188 246.875 C 153.914063 251.65625 151.609375 257.84375 149.21875 263.867188 C 147.652344 262.132813 146.992188 259.660156 145.671875 257.679688 C 141.960938 251.65625 137.503906 245.636719 131.894531 240.6875 C 126.617188 235.738281 120.183594 231.203125 113.496094 228.066406 C 114.574219 227.324219 116.222656 226.828125 117.460938 225.921875 C 119.359375 226.335938 120.59375 228.066406 122.492188 228.480469 Z M 94.695313 247.453125 C 94.363281 248.027344 93.789063 247.453125 93.621094 247.121094 C 93.289063 241.347656 89.582031 236.808594 85.539063 232.851563 C 85.953125 230.871094 86.695313 229.140625 86.777344 226.996094 C 87.355469 226.746094 86.777344 226.335938 86.941406 226.085938 C 92.222656 231.945313 97.664063 239.53125 94.695313 247.453125 Z M 209.433594 226.582031 C 209.84375 229.058594 211.078125 231.449219 210.585938 234.007813 C 206.628906 237.222656 203.078125 241.429688 202.339844 246.378906 L 201.679688 247.535156 C 200.769531 245.636719 200.9375 243.246094 201.101563 241.265625 C 202.089844 235.65625 204.730469 230.542969 209.101563 226.582031 Z M 233.105469 226.914063 L 233.269531 227.40625 Z M 89.828125 245.554688 C 89.992188 246.707031 90.902344 248.359375 90.902344 249.925781 L 90.820313 250.421875 C 85.785156 249.84375 81.246094 246.050781 77.867188 241.59375 C 76.21875 238.957031 73.992188 236.152344 74.980469 232.851563 C 81.578125 234.582031 86.613281 239.53125 89.828125 245.554688 Z M 221.0625 233.675781 C 221.558594 239.78125 217.761719 245.71875 212.402344 248.769531 C 210.175781 249.59375 207.863281 251.164063 205.472656 250.75 C 206.296875 242.75 212.484375 236.398438 219.742188 233.429688 Z M 73.085938 243.902344 C 75.230469 249.101563 80.753906 251.574219 85.210938 254.132813 L 85.539063 254.710938 L 84.714844 255.289063 C 76.054688 256.6875 70.195313 249.429688 64.09375 244.5625 C 63.761719 244.070313 64.417969 244.070313 64.753906 243.738281 C 67.226563 244.480469 70.28125 243.902344 73.085938 243.902344 Z M 232.199219 245.304688 C 229.476563 248.605469 225.929688 251.246094 222.382813 253.636719 C 219.824219 255.289063 217.101563 255.371094 214.050781 255.863281 C 213.554688 255.371094 212.980469 255.863281 212.402344 255.863281 C 211.328125 255.699219 210.175781 255.78125 209.183594 255.371094 L 209.183594 255.039063 C 214.382813 252.648438 219.824219 249.429688 223.453125 244.480469 C 226.339844 244.730469 229.3125 245.390625 232.199219 245.304688 Z M 189.386719 244.5625 C 188.894531 246.957031 188.234375 249.183594 187.820313 251.492188 C 181.800781 253.390625 176.4375 257.515625 171.820313 262.214844 C 170.992188 261.636719 169.921875 261.144531 170.746094 260.070313 C 173.304688 251.574219 182.289063 247.945313 189.386719 244.5625 Z M 117.460938 250.171875 C 121.914063 253.800781 127.773438 257.515625 126.371094 263.949219 C 122.078125 258.503906 115.8125 254.132813 109.296875 252.070313 C 108.304688 249.761719 107.5625 247.367188 107.066406 244.8125 C 110.945313 245.554688 113.996094 248.441406 117.460938 250.171875 Z M 36.042969 251.574219 L 36.460938 253.472656 C 37.945313 253.71875 39.265625 254.792969 40.167969 256.03125 C 40.503906 256.9375 40.996094 258.175781 39.921875 259 C 37.78125 260.894531 33.984375 261.226563 31.183594 260.484375 C 28.042969 258.503906 24.996094 255.945313 22.933594 252.8125 C 23.917969 251.742188 24.746094 249.511719 26.726563 250.171875 C 30.109375 250.832031 33.902344 247.617188 36.042969 251.574219 Z M 31.265625 252.894531 C 31.511719 253.554688 30.769531 253.308594 30.523438 253.472656 C 29.695313 253.390625 28.707031 253.308594 28.289063 252.566406 C 29.367188 252.566406 30.523438 251.988281 31.265625 252.894531 Z M 277.398438 258.339844 C 277.730469 260.152344 275.503906 260.152344 275.089844 261.554688 C 271.953125 267 269.316406 272.691406 265.355469 277.640625 C 264.367188 278.878906 262.222656 278.464844 261.808594 280.199219 C 262.140625 282.261719 261.808594 284.652344 260.738281 286.382813 C 259.828125 286.21875 260.820313 287.042969 260.160156 287.207031 C 257.273438 291.003906 253.3125 294.21875 250.757813 298.179688 C 250.59375 300.820313 251.664063 303.457031 250.179688 306.015625 C 249.273438 307.664063 247.789063 309.726563 245.558594 309.5625 C 245.066406 309.480469 244.242188 309.5625 243.910156 308.820313 C 243.578125 307.253906 245.3125 307.171875 245.890625 305.851563 C 246.054688 303.789063 249.023438 302.632813 247.539063 300.40625 C 245.890625 300.902344 244.15625 302.632813 242.34375 301.480469 C 240.527344 300.078125 241.023438 297.683594 240.777344 295.539063 C 242.261719 292.652344 245.808594 294.878906 248.035156 293.148438 C 251.828125 289.4375 255.210938 285.0625 258.757813 281.105469 C 258.839844 280.609375 258.59375 280.28125 258.261719 280.03125 C 256.285156 279.949219 255.210938 282.011719 253.890625 283.167969 C 250.59375 285.890625 248.28125 292.488281 243.085938 290.589844 C 241.105469 289.683594 240.199219 287.785156 239.371094 286.054688 C 238.464844 281.765625 241.929688 278.796875 243.992188 275.496094 C 246.46875 275.414063 245.394531 278.300781 246.136719 279.371094 C 245.726563 281.351563 243.085938 282.589844 244.242188 284.898438 C 247.128906 283.660156 248.777344 280.609375 251.003906 278.300781 C 252.488281 276.570313 254.054688 273.847656 256.695313 274.421875 C 258.179688 274.339844 259.335938 276.074219 260.65625 275.332031 C 262.71875 272.363281 264.121094 269.0625 265.851563 265.84375 C 263.128906 266.09375 260.242188 266.835938 258.839844 269.558594 C 258.59375 270.382813 258.921875 271.453125 258.097656 272.03125 C 255.621094 271.621094 256.285156 269.0625 255.539063 267.246094 C 255.539063 265.679688 255.789063 264.195313 256.695313 263.039063 C 259.664063 260.320313 263.703125 259.742188 267.253906 258.257813 C 269.894531 256.773438 271.703125 254.378906 274.675781 253.636719 C 276.988281 253.96875 276.738281 256.6875 277.398438 258.339844 Z M 35.554688 256.6875 C 35.386719 257.183594 35.636719 257.84375 35.058594 258.175781 C 33.492188 258.339844 32.585938 256.9375 31.429688 256.113281 C 31.839844 255.371094 32.832031 255.535156 33.492188 255.289063 C 34.398438 255.289063 35.386719 255.863281 35.554688 256.6875 Z M 122.574219 266.917969 L 122.492188 267.414063 C 112.925781 269.390625 103.769531 266.257813 97.746094 258.585938 C 97.335938 257.761719 96.179688 256.855469 96.59375 256.03125 C 103.191406 254.957031 109.871094 256.523438 115.234375 259.660156 C 118.367188 261.308594 120.59375 264.195313 122.574219 266.917969 Z M 199.121094 256.441406 C 196.730469 260.730469 192.6875 263.535156 188.644531 266.339844 C 184.769531 268.238281 178.914063 268.320313 174.953125 267.164063 C 175.035156 265.761719 177.015625 264.691406 178.085938 263.371094 C 182.789063 259.578125 188.316406 257.761719 194.007813 256.277344 C 195.738281 256.359375 197.554688 256.03125 199.121094 256.441406 Z M 29.449219 264.113281 C 31.347656 264.113281 32.996094 262.957031 34.8125 263.699219 C 35.636719 265.515625 33.328125 266.339844 32.585938 267.660156 C 32.253906 268.484375 31.757813 269.476563 32.089844 270.464844 C 32.414063 271.289063 33.160156 272.113281 34.152344 272.195313 C 37.945313 271.453125 36.957031 275.910156 38.769531 277.640625 C 44.460938 285.230469 51.390625 292.816406 60.214844 295.789063 C 66.734375 298.015625 74.15625 299.5 81.246094 298.675781 C 81.746094 298.921875 82.238281 299.085938 82.488281 299.582031 C 82.652344 300.902344 81.164063 300.820313 80.421875 301.230469 C 69.539063 302.964844 56.664063 303.539063 47.921875 296.117188 C 42.070313 291.910156 38.027344 286.382813 33.410156 281.105469 C 31.347656 279.289063 34.480469 276.734375 32.089844 275.578125 C 30.851563 275.910156 29.53125 275.660156 28.539063 274.917969 C 27.304688 273.929688 26.480469 272.527344 26.480469 270.960938 C 26.976563 269.476563 27.46875 268.15625 28.539063 266.917969 C 27.386719 266.011719 26.234375 267.164063 24.832031 267.246094 C 22.769531 268.15625 21.695313 265.925781 20.707031 264.691406 C 20.539063 263.535156 18.890625 262.132813 20.210938 261.226563 C 23.015625 262.957031 25.902344 265.101563 29.449219 264.113281 Z M 46.605469 267.660156 C 45.945313 269.0625 47.019531 270.792969 45.617188 271.949219 C 44.378906 272.03125 43.140625 272.691406 41.988281 272.277344 C 40.503906 271.125 40.335938 269.0625 40.664063 267.414063 C 42.398438 267.164063 44.132813 266.917969 45.863281 266.671875 Z M 106.820313 271.289063 C 111.273438 272.609375 116.472656 273.515625 121.089844 271.949219 C 121.339844 272.03125 121.746094 271.867188 121.914063 272.277344 C 119.441406 275.332031 115.730469 276.074219 112.015625 276.816406 C 104.757813 278.628906 98.902344 274.339844 92.46875 272.773438 C 92.136719 272.445313 91.890625 272.195313 91.972656 271.785156 C 95.355469 270.546875 98.738281 268.730469 102.777344 269.390625 Z M 203.410156 272.277344 C 203.65625 272.855469 202.996094 273.105469 202.664063 273.351563 C 197.222656 275.332031 192.109375 279.125 185.757813 278.300781 C 182.621094 277.144531 178.914063 277.558594 176.4375 274.753906 C 176.355469 274.175781 175.53125 273.269531 176.191406 272.527344 C 176.683594 271.949219 177.34375 272.527344 177.839844 272.609375 C 182.789063 273.351563 188.234375 272.691406 192.605469 270.050781 C 196.398438 268.320313 200.109375 270.300781 203.410156 272.277344 Z M 238.878906 298.507813 C 240.28125 300.652344 242.097656 302.796875 242.011719 305.4375 L 242.179688 305.6875 L 242.097656 305.519531 C 242.011719 306.675781 241.4375 307.828125 240.445313 308.40625 C 238.878906 309.5625 235.003906 307.746094 235.414063 310.882813 C 233.765625 313.523438 230.796875 315.007813 227.992188 315.996094 C 226.753906 316.820313 226.589844 318.222656 225.351563 319.214844 C 222.050781 321.359375 218.503906 323.503906 214.871094 325.152344 C 212.980469 326.058594 210.421875 327.710938 208.359375 326.222656 C 206.050781 324.820313 205.140625 322.019531 204.8125 319.707031 C 206.050781 318.554688 207.371094 320.617188 208.855469 320.699219 C 213.96875 319.957031 218.09375 316.492188 222.628906 314.179688 C 224.527344 313.273438 224.113281 310.964844 225.351563 309.726563 C 228.652344 310.800781 230.796875 308.078125 232.691406 306.015625 C 233.269531 303.539063 231.371094 300.570313 233.433594 298.507813 C 234.753906 296.53125 237.476563 296.941406 238.878906 298.507813 Z M 219.90625 300.820313 C 219.824219 302.386719 220.238281 304.199219 218.585938 305.027344 C 217.433594 305.191406 216.441406 305.6875 215.453125 306.261719 C 215.617188 307.335938 214.546875 308.40625 213.554688 308.984375 C 212.152344 309.398438 210.257813 309.726563 208.855469 309.066406 C 208.277344 307.828125 208.855469 306.097656 208.855469 304.613281 C 210.257813 303.292969 212.730469 304.285156 213.96875 302.796875 C 214.050781 301.394531 214.382813 299.746094 215.867188 299.25 C 217.269531 299.5 218.914063 299.5 219.90625 300.820313 Z M 237.808594 302.882813 C 237.808594 303.375 237.3125 303.625 236.898438 303.625 C 236.570313 303.625 236.320313 303.707031 236.15625 303.375 C 236.15625 302.964844 236.734375 302.054688 237.3125 302.550781 C 237.640625 302.386719 237.640625 302.796875 237.808594 302.882813 Z M 65.082031 306.015625 C 65.332031 307.003906 64.011719 307.335938 63.351563 307.828125 C 59.144531 308.738281 55.433594 306.261719 51.71875 305.191406 C 51.554688 303.539063 53.699219 303.375 54.773438 302.714844 Z M 89.496094 309.5625 C 91.230469 310.140625 93.621094 308.65625 94.449219 310.882813 C 94.449219 312.035156 95.4375 312.777344 95.4375 313.933594 C 94.035156 314.675781 92.714844 316.324219 90.984375 315.5 C 89.664063 314.511719 89.664063 312.53125 88.015625 312.035156 L 84.714844 312.035156 C 83.972656 311.210938 83.148438 310.140625 82.324219 309.480469 C 81.246094 308.574219 82.734375 308.324219 83.066406 307.664063 C 84.054688 307.171875 85.210938 307.003906 86.035156 305.851563 C 87.269531 306.839844 88.179688 308.488281 89.496094 309.5625 Z M 73.164063 307.664063 C 72.667969 308.820313 73.164063 310.222656 73.660156 311.210938 C 77.867188 315.335938 82.570313 318.800781 87.683594 321.359375 C 89.746094 322.511719 92.46875 322.59375 94.613281 321.769531 C 95.519531 322.761719 95.851563 324.574219 97.414063 324.738281 C 101.453125 323.996094 104.757813 321.191406 108.222656 319.046875 C 109.789063 320.367188 109.621094 322.59375 110.285156 324.328125 C 110.53125 326.140625 108.386719 325.730469 107.398438 326.308594 C 103.355469 323.667969 99.316406 327.296875 95.683594 328.78125 C 95.191406 328.699219 94.941406 328.453125 94.695313 327.957031 C 94.695313 326.964844 93.457031 326.058594 92.546875 325.648438 C 88.839844 325.316406 84.714844 326.472656 81.664063 323.914063 C 76.792969 321.109375 70.527344 317.726563 68.464844 311.953125 C 69.289063 310.140625 71.023438 308.242188 72.835938 307.171875 Z M 170.496094 313.109375 C 169.921875 314.179688 169.839844 315.667969 168.601563 316.242188 C 167.117188 315.996094 164.890625 315.996094 163.570313 317.152344 C 163.652344 317.726563 162.992188 318.058594 162.664063 318.222656 C 161.671875 318.554688 160.601563 318.472656 159.691406 318.140625 C 158.949219 317.398438 158.703125 316.410156 158.867188 315.5 C 159.691406 314.757813 160.023438 313.109375 161.179688 313.109375 C 162.328125 314.179688 163.734375 313.605469 165.136719 313.523438 L 166.289063 310.632813 C 167.777344 311.210938 170.085938 311.128906 170.496094 313.109375 Z M 145.175781 313.523438 C 141.214844 318.472656 134.535156 316.242188 128.925781 317.316406 C 126.535156 317.480469 126.535156 320.121094 125.214844 321.441406 C 124.554688 324.246094 122.65625 326.472656 122.492188 329.441406 C 122.988281 329.855469 123.234375 330.679688 123.894531 330.84375 C 126.535156 330.183594 127.523438 325.152344 130.824219 327.710938 L 136.351563 330.515625 L 136.597656 331.171875 C 133.710938 333.976563 130.246094 336.207031 126.78125 337.9375 C 124.882813 338.597656 122.988281 337.523438 121.664063 336.453125 C 121.007813 335.378906 121.171875 333.566406 119.605469 333.316406 C 117.621094 333.976563 115.730469 334.96875 113.585938 335.214844 C 111.523438 337.277344 110.203125 339.585938 107.726563 341.152344 C 105.746094 340.742188 103.027344 340.410156 100.964844 339.257813 L 100.632813 338.515625 C 103.933594 338.019531 106.984375 336.863281 110.039063 335.792969 C 111.109375 333.484375 106.902344 333.070313 107.726563 330.679688 C 109.128906 329.027344 110.367188 326.390625 112.84375 326.800781 C 114.902344 327.875 114.902344 332.246094 118.367188 330.597656 C 121.171875 328.535156 120.761719 324.738281 122.410156 321.933594 C 124.636719 318.304688 126.535156 313.523438 131.402344 313.027344 C 135.773438 312.863281 140.226563 312.367188 144.679688 312.863281 Z M 201.019531 319.871094 C 201.347656 322.511719 203.164063 324.65625 202.664063 327.542969 C 201.347656 328.945313 199.121094 329.195313 197.304688 329.027344 C 196.8125 330.347656 195.65625 331.171875 194.496094 331.75 C 193.097656 332.492188 191.863281 331.421875 190.460938 331.585938 C 187.820313 333.402344 185.179688 335.378906 181.800781 334.886719 C 178.828125 336.949219 175.199219 337.9375 171.570313 336.78125 C 169.921875 339.339844 168.273438 342.472656 165.21875 343.875 C 163.488281 344.125 162.414063 342.640625 161.09375 341.730469 C 159.941406 340.328125 159.859375 338.433594 160.269531 336.535156 C 161.589844 335.546875 162.414063 337.9375 163.816406 337.855469 C 165.550781 338.515625 166.539063 336.617188 167.28125 335.546875 C 169.097656 332.574219 165.960938 330.101563 165.46875 327.296875 C 164.476563 324.90625 161.671875 321.933594 163.984375 319.460938 L 164.3125 319.214844 C 167.445313 322.761719 169.015625 327.214844 171.984375 330.84375 C 174.453125 332.164063 177.34375 330.679688 179.40625 329.441406 C 179.820313 328.699219 179.738281 327.710938 180.480469 327.050781 C 182.371094 326.964844 183.117188 330.019531 185.179688 328.453125 C 186.253906 327.875 187.902344 327.460938 188.066406 325.976563 C 188.480469 324.988281 188.152344 323.585938 189.222656 323.007813 C 190.953125 323.089844 190.210938 325.316406 191.53125 326.058594 C 191.945313 326.636719 192.523438 326.472656 193.015625 326.222656 C 193.757813 325.8125 193.183594 324.90625 193.511719 324.328125 C 191.285156 323.253906 193.183594 321.027344 193.265625 319.542969 C 195.738281 320.285156 196.316406 323.503906 198.953125 323.914063 C 199.367188 323.585938 199.039063 323.007813 198.871094 322.675781 L 196.730469 320.699219 C 196.894531 319.789063 196.730469 318.386719 197.472656 317.644531 C 198.953125 317.480469 200.277344 318.71875 201.019531 319.871094 Z M 178.414063 321.359375 C 178.171875 322.59375 178.253906 324.492188 176.683594 325.152344 C 175.035156 325.480469 173.304688 325.234375 172.148438 323.914063 C 172.3125 322.347656 173.054688 320.945313 174.046875 319.789063 C 175.695313 319.871094 177.59375 319.871094 178.414063 321.359375 Z M 131.648438 332 C 130.328125 333.070313 128.597656 334.0625 127.03125 333.234375 C 125.378906 332.742188 126.453125 331.421875 127.03125 330.597656 C 128.515625 329.359375 130.078125 330.761719 131.402344 331.339844 Z M 203.164063 331.667969 L 201.925781 336.039063 L 196.8125 340.410156 L 195.65625 340.824219 C 195.90625 338.84375 195.65625 336.371094 197.554688 335.132813 L 202.171875 331.171875 C 202.585938 331.089844 202.996094 331.253906 203.164063 331.667969 Z M 203.164063 331.667969 "/>
</g>
</g>
</svg>
